<?xml version="1.0" encoding="UTF-8" standalone="no"?>
<!-- Created with Inkscape (http://www.inkscape.org/) -->

<svg
   xmlns:dc="http://purl.org/dc/elements/1.1/"
   xmlns:cc="http://creativecommons.org/ns#"
   xmlns:rdf="http://www.w3.org/1999/02/22-rdf-syntax-ns#"
   xmlns:svg="http://www.w3.org/2000/svg"
   xmlns="http://www.w3.org/2000/svg"
   xmlns:sodipodi="http://sodipodi.sourceforge.net/DTD/sodipodi-0.dtd"
   xmlns:inkscape="http://www.inkscape.org/namespaces/inkscape"
   width="0.80000001in"
   height="0.5in"
   viewBox="0 0 72.000002 45.000001"
   id="svg2"
   version="1.1"
   inkscape:version="0.91 r13725"
   sodipodi:docname="SIUSBSC-Logo.svg"
   inkscape:export-filename="C:\Users\jacob\Google Drive\Projects\SIUSBSCv2\SIUSBSC-Logo.png"
   inkscape:export-xdpi="600"
   inkscape:export-ydpi="600">
  <defs
     id="defs4" />
  <sodipodi:namedview
     id="base"
     pagecolor="#ffffff"
     bordercolor="#666666"
     borderopacity="1.0"
     inkscape:pageopacity="0.0"
     inkscape:pageshadow="2"
     inkscape:zoom="15.839192"
     inkscape:cx="32.635829"
     inkscape:cy="21.645181"
     inkscape:document-units="px"
     inkscape:current-layer="layer1"
     showgrid="false"
     units="in"
     inkscape:window-width="1920"
     inkscape:window-height="1018"
     inkscape:window-x="1912"
     inkscape:window-y="-8"
     inkscape:window-maximized="1" />
  <metadata
     id="metadata7">
    <rdf:RDF>
      <cc:Work
         rdf:about="">
        <dc:format>image/svg+xml</dc:format>
        <dc:type
           rdf:resource="http://purl.org/dc/dcmitype/StillImage" />
        <dc:title></dc:title>
      </cc:Work>
    </rdf:RDF>
  </metadata>
  <g
     inkscape:label="Layer 1"
     inkscape:groupmode="layer"
     id="layer1"
     transform="translate(0,-1007.3621)">
    <g
       id="g3387"
       transform="matrix(0.09255712,0,0,0.09255712,7.077338,1030.9283)"
       style="fill:#000000;fill-opacity:1">
      <path
         id="path3345"
         d="m 152.336,57.604 -16.439,-3.057 c -0.4,-0.075 -0.838,-0.451 -0.973,-0.837 l -5.039,-11.756 c -0.188,-0.363 -0.152,-0.933 0.08,-1.271 l 9.578,-13.96 c 0.229,-0.336 0.184,-0.847 -0.105,-1.136 L 127.475,13.624 c -0.289,-0.289 -0.799,-0.336 -1.135,-0.105 l -14.205,9.748 c -0.336,0.231 -0.912,0.272 -1.277,0.092 L 99.462,18.694 c -0.387,-0.128 -0.764,-0.561 -0.84,-0.962 L 95.457,0.729 C 95.383,0.328 94.988,0 94.58,0 L 77.66,0 C 77.253,0 76.858,0.328 76.784,0.729 L 73.62,17.732 c -0.076,0.401 -0.452,0.834 -0.84,0.962 l -11.397,4.665 c -0.366,0.18 -0.942,0.139 -1.277,-0.092 L 45.902,13.519 c -0.337,-0.231 -0.848,-0.184 -1.136,0.105 L 32.802,25.587 c -0.288,0.289 -0.336,0.8 -0.105,1.136 l 9.579,13.96 c 0.23,0.338 0.266,0.908 0.079,1.271 l -5.04,11.756 c -0.134,0.386 -0.571,0.762 -0.973,0.837 l -16.438,3.057 c -0.402,0.076 -0.729,0.47 -0.729,0.878 l 10e-4,16.919 c 0,0.408 0.328,0.805 0.729,0.878 l 16.035,2.984 c 0.401,0.073 0.83,0.454 0.952,0.843 l 5.006,12.505 c 0.179,0.367 0.137,0.941 -0.095,1.277 l -9.108,13.273 c -0.23,0.336 -0.183,0.848 0.105,1.137 l 11.965,11.963 c 0.288,0.287 0.799,0.334 1.136,0.105 l 13.038,-8.949 c 0.336,-0.23 0.899,-0.248 1.25,-0.043 l 5.75,3.07 c 0.364,0.186 0.789,0.029 0.945,-0.348 L 78.74,85.449 c 0.157,-0.377 0,-0.858 -0.348,-1.071 l -1.439,-0.881 c -0.266,-0.162 -0.627,-0.441 -0.91,-0.697 -5.191,-3.324 -8.635,-9.139 -8.635,-15.761 0,-10.334 8.378,-18.711 18.711,-18.711 10.333,0 18.71,8.377 18.71,18.711 0,6.622 -3.443,12.437 -8.635,15.761 -0.281,0.256 -0.643,0.535 -0.908,0.697 l -1.439,0.881 c -0.346,0.213 -0.504,0.694 -0.348,1.071 l 11.855,28.648 c 0.156,0.377 0.58,0.533 0.945,0.348 l 5.75,-3.07 c 0.352,-0.205 0.914,-0.188 1.25,0.043 l 13.039,8.949 c 0.336,0.229 0.848,0.182 1.135,-0.105 l 11.965,-11.963 c 0.289,-0.289 0.336,-0.801 0.105,-1.137 l -9.109,-13.273 c -0.23,-0.336 -0.273,-0.91 -0.094,-1.277 l 5.006,-12.505 c 0.123,-0.389 0.549,-0.77 0.951,-0.843 l 16.035,-2.984 c 0.4,-0.073 0.729,-0.47 0.729,-0.878 l 0.002,-16.919 c 0.001,-0.409 -0.327,-0.803 -0.727,-0.879"
         inkscape:connector-curvature="0"
         style="fill:#000000;fill-opacity:1" />
      <path
         id="path3347"
         d="m 45.597,180.781 3.613,0 0,-12.254 c 0,-4.426 -3.046,-5.914 -7.473,-5.914 -2.692,0 -4.675,0.707 -6.056,2.621 l 2.833,2.16 c 0.637,-1.027 1.523,-1.383 3.4,-1.383 2.585,0 3.683,0.604 3.683,2.303 l 0,1.877 -4.994,0 c -3.86,0 -5.843,2.445 -5.843,5.313 0,3.117 2.337,5.49 6.339,5.49 2.444,0 3.684,-0.566 4.427,-1.807 l 0.071,0 0,1.594 z m 0,-6.305 c 0,2.799 -1.027,3.117 -4.037,3.117 -2.444,0 -3.401,-1.063 -3.401,-2.266 0,-1.311 0.992,-2.162 3.118,-2.162 l 4.32,0 0,1.311 z"
         inkscape:connector-curvature="0"
         style="fill:#000000;fill-opacity:1;fill-rule:evenodd" />
      <path
         id="path3349"
         d="m 53.178,180.781 3.612,0 0,-10.803 c 0,-2.619 1.736,-3.754 3.507,-3.754 0.921,0 1.523,0.248 2.373,0.887 l 2.62,-3.117 c -1.098,-0.85 -2.301,-1.381 -3.754,-1.381 -1.912,0 -3.542,0.709 -4.675,2.125 l -0.071,0 0,-1.912 -3.612,0 0,17.955 z"
         inkscape:connector-curvature="0"
         style="fill:#000000;fill-opacity:1;fill-rule:evenodd" />
      <path
         id="path3351"
         d="m 76.095,180.781 3.612,0 0,-25.217 -3.612,0 0,9.174 c -1.346,-1.275 -2.798,-2.125 -4.64,-2.125 -2.196,0 -3.789,0.99 -4.816,2.338 -0.992,1.273 -1.275,2.441 -1.275,6.836 0,4.426 0.283,5.594 1.275,6.869 1.027,1.346 2.62,2.338 4.816,2.338 1.842,0 3.507,-0.852 4.64,-2.09 l 0,1.877 z m -3.542,-14.557 c 3.365,0 3.542,2.977 3.542,5.563 0,2.621 -0.177,5.594 -3.542,5.594 -3.4,0 -3.577,-2.797 -3.577,-5.594 0,-2.764 0.177,-5.563 3.577,-5.563"
         inkscape:connector-curvature="0"
         style="fill:#000000;fill-opacity:1;fill-rule:evenodd" />
      <polygon
         id="polygon3353"
         points="81.64,162.826 87.377,180.781 90.564,180.781 94.318,168.208 94.389,168.208 98.143,180.781 101.332,180.781 107.068,162.826 103.242,162.826 99.809,175.398 99.736,175.398 95.664,162.826 93.043,162.826 88.971,175.398 88.9,175.398 85.464,162.826 "
         style="fill:#000000;fill-opacity:1;fill-rule:evenodd" />
      <path
         id="path3355"
         d="m 118.186,180.781 3.613,0 0,-12.254 c 0,-4.426 -3.047,-5.914 -7.473,-5.914 -2.691,0 -4.676,0.707 -6.057,2.621 l 2.834,2.16 c 0.637,-1.027 1.521,-1.383 3.398,-1.383 2.586,0 3.684,0.604 3.684,2.303 l 0,1.877 -4.994,0 c -3.859,0 -5.844,2.445 -5.844,5.313 0,3.117 2.338,5.49 6.34,5.49 2.443,0 3.684,-0.566 4.428,-1.807 l 0.07,0 0,1.594 z m 0,-6.305 c 0,2.799 -1.027,3.117 -4.037,3.117 -2.443,0 -3.4,-1.063 -3.4,-2.266 0,-1.311 0.992,-2.162 3.117,-2.162 l 4.32,0 0,1.311 z"
         inkscape:connector-curvature="0"
         style="fill:#000000;fill-opacity:1;fill-rule:evenodd" />
      <path
         id="path3357"
         d="m 125.768,180.781 3.611,0 0,-10.803 c 0,-2.619 1.734,-3.754 3.506,-3.754 0.922,0 1.523,0.248 2.373,0.887 l 2.621,-3.117 c -1.098,-0.85 -2.303,-1.381 -3.754,-1.381 -1.912,0 -3.541,0.709 -4.674,2.125 l -0.072,0 0,-1.912 -3.611,0 0,17.955 z"
         inkscape:connector-curvature="0"
         style="fill:#000000;fill-opacity:1;fill-rule:evenodd" />
      <path
         id="path3359"
         d="m 152.748,173.167 0,-2.977 c 0,-4.639 -3.434,-7.578 -7.4,-7.578 -3.471,0 -7.402,2.266 -7.402,9.242 0,7.367 4.285,9.139 7.969,9.139 2.408,0 4.709,-0.85 6.48,-2.904 l -2.621,-2.232 c -1.063,1.1 -2.551,1.736 -3.93,1.736 -2.48,0 -4.285,-1.488 -4.285,-4.426 l 11.189,0 z m -11.189,-2.976 c 0.07,-2.727 1.664,-4.18 3.789,-4.18 2.125,0 3.684,1.453 3.789,4.18 l -7.578,0 z"
         inkscape:connector-curvature="0"
         style="fill:#000000;fill-opacity:1;fill-rule:evenodd" />
      <path
         id="path3361"
         d="m 0,143.425 c 0,3.895 0.566,5.383 1.947,6.906 0.992,1.098 2.657,2.301 5.455,2.301 2.797,0 4.462,-1.203 5.454,-2.301 1.381,-1.523 1.948,-3.012 1.948,-6.906 0,-3.861 -0.567,-5.348 -1.948,-6.871 -0.992,-1.098 -2.657,-2.303 -5.454,-2.303 -2.798,0 -4.463,1.205 -5.455,2.303 C 0.566,138.078 0,139.564 0,143.425 m 11.191,0.035 c 0,2.586 -0.212,3.293 -0.885,4.25 -0.532,0.744 -1.665,1.311 -2.904,1.311 -1.24,0 -2.373,-0.566 -2.904,-1.311 -0.673,-0.957 -0.886,-1.664 -0.886,-4.285 0,-2.586 0.213,-3.295 0.886,-4.25 0.531,-0.744 1.664,-1.311 2.904,-1.311 1.239,0 2.372,0.566 2.904,1.311 0.673,0.955 0.885,1.664 0.885,4.285"
         inkscape:connector-curvature="0"
         style="fill:#000000;fill-opacity:1;fill-rule:evenodd" />
      <path
         id="path3363"
         d="m 49.469,144.806 0,-2.975 c 0,-4.641 -3.435,-7.58 -7.401,-7.58 -3.472,0 -7.402,2.268 -7.402,9.244 0,7.365 4.285,9.137 7.968,9.137 2.409,0 4.71,-0.85 6.481,-2.904 l -2.621,-2.23 c -1.062,1.098 -2.549,1.736 -3.93,1.736 -2.48,0 -4.286,-1.488 -4.286,-4.428 l 11.191,0 z m -11.191,-2.974 c 0.071,-2.729 1.665,-4.18 3.79,-4.18 2.125,0 3.683,1.451 3.789,4.18 l -7.579,0 z"
         inkscape:connector-curvature="0"
         style="fill:#000000;fill-opacity:1;fill-rule:evenodd" />
      <path
         id="path3365"
         d="m 52.552,152.419 3.612,0 0,-10.693 c 0,-2.445 1.523,-3.861 3.577,-3.861 2.019,0 3.542,1.416 3.542,3.861 l 0,10.693 3.612,0 0,-11.934 c 0,-4.074 -3.187,-6.234 -5.985,-6.234 -1.912,0 -3.542,0.709 -4.674,2.125 l -0.072,0 0,-1.912 -3.612,0 0,17.955 z"
         inkscape:connector-curvature="0"
         style="fill:#000000;fill-opacity:1;fill-rule:evenodd" />
      <path
         id="path3367"
         d="m 76.662,149.41 c 2.302,2.16 4.994,3.223 7.898,3.223 4.179,0 7.437,-2.018 7.437,-5.525 0,-2.867 -1.486,-5.135 -5.206,-5.383 l -2.975,-0.211 c -1.806,-0.143 -2.372,-0.922 -2.372,-1.701 0,-1.238 0.779,-2.16 3.08,-2.16 1.949,0 3.402,0.674 4.818,1.664 l 2.23,-2.619 c -1.771,-1.488 -3.895,-2.445 -7.049,-2.445 -3.789,0 -6.693,1.877 -6.693,5.525 0,3.08 2.196,4.852 5.17,5.1 l 3.188,0.283 c 1.241,0.105 2.196,0.496 2.196,1.771 0,1.523 -1.489,2.301 -3.542,2.301 -2.408,0 -4.108,-0.777 -5.666,-2.301 l -2.514,2.478 z"
         inkscape:connector-curvature="0"
         style="fill:#000000;fill-opacity:1;fill-rule:evenodd" />
      <path
         id="path3369"
         d="m 94.051,143.425 c 0,3.895 0.568,5.383 1.949,6.906 0.992,1.098 2.656,2.301 5.453,2.301 2.799,0 4.463,-1.203 5.455,-2.301 1.381,-1.523 1.947,-3.012 1.947,-6.906 0,-3.861 -0.566,-5.348 -1.947,-6.871 -0.992,-1.098 -2.656,-2.303 -5.455,-2.303 -2.797,0 -4.461,1.205 -5.453,2.303 -1.381,1.524 -1.949,3.01 -1.949,6.871 m 11.191,0.035 c 0,2.586 -0.211,3.293 -0.885,4.25 -0.531,0.744 -1.664,1.311 -2.904,1.311 -1.238,0 -2.373,-0.566 -2.902,-1.311 -0.674,-0.957 -0.887,-1.664 -0.887,-4.285 0,-2.586 0.213,-3.295 0.887,-4.25 0.529,-0.744 1.664,-1.311 2.902,-1.311 1.24,0 2.373,0.566 2.904,1.311 0.674,0.955 0.885,1.664 0.885,4.285"
         inkscape:connector-curvature="0"
         style="fill:#000000;fill-opacity:1;fill-rule:evenodd" />
      <path
         id="path3371"
         d="m 111.939,146.4 c 0,4.072 3.188,6.232 6.021,6.232 1.875,0 3.506,-0.709 4.639,-2.125 l 0.07,0 0,1.914 3.611,0 0,-17.957 -3.611,0 0,10.695 c 0,2.443 -1.523,3.861 -3.543,3.861 -2.053,0 -3.576,-1.418 -3.576,-3.861 l 0,-10.695 -3.611,0 0,11.936 z"
         inkscape:connector-curvature="0"
         style="fill:#000000;fill-opacity:1;fill-rule:evenodd" />
      <path
         id="path3373"
         d="m 130.242,152.419 3.613,0 0,-10.801 c 0,-2.621 1.734,-3.754 3.506,-3.754 0.922,0 1.523,0.248 2.373,0.885 l 2.621,-3.117 c -1.1,-0.85 -2.301,-1.381 -3.754,-1.381 -1.912,0 -3.543,0.709 -4.676,2.125 l -0.07,0 0,-1.912 -3.613,0 0,17.955 z"
         inkscape:connector-curvature="0"
         style="fill:#000000;fill-opacity:1;fill-rule:evenodd" />
      <path
         id="path3375"
         d="m 153.859,147.144 c -0.885,1.098 -2.16,1.877 -3.646,1.877 -2.939,0 -4.676,-1.666 -4.676,-5.563 0,-3.93 1.736,-5.594 4.676,-5.594 1.486,0 2.762,0.779 3.646,1.877 l 2.656,-2.373 c -1.557,-1.807 -3.719,-3.117 -6.445,-3.117 -4.143,0 -8.145,2.621 -8.145,9.207 0,6.555 4.002,9.174 8.145,9.174 2.727,0 4.889,-1.311 6.445,-3.115 l -2.656,-2.373 z"
         inkscape:connector-curvature="0"
         style="fill:#000000;fill-opacity:1;fill-rule:evenodd" />
      <path
         id="path3377"
         d="m 172.238,144.806 0,-2.975 c 0,-4.641 -3.438,-7.58 -7.402,-7.58 -3.473,0 -7.402,2.268 -7.402,9.244 0,7.365 4.285,9.137 7.969,9.137 2.408,0 4.711,-0.85 6.48,-2.904 l -2.621,-2.23 c -1.063,1.098 -2.549,1.736 -3.93,1.736 -2.48,0 -4.285,-1.488 -4.285,-4.428 l 11.191,0 z m -11.191,-2.974 c 0.07,-2.729 1.664,-4.18 3.789,-4.18 2.125,0 3.682,1.451 3.789,4.18 l -7.578,0 z"
         inkscape:connector-curvature="0"
         style="fill:#000000;fill-opacity:1;fill-rule:evenodd" />
      <path
         id="path3379"
         d="m 25.041,149.021 c 3.4,0 3.577,-2.799 3.577,-5.561 0,-2.799 -0.177,-5.596 -3.577,-5.596 -3.364,0 -3.542,2.975 -3.542,5.596 0,2.586 0.177,5.561 3.542,5.561 m -7.168,31.76 0,-46.316 3.626,0 0,1.877 c 1.134,-1.24 2.798,-2.09 4.64,-2.09 2.195,0 3.79,0.992 4.817,2.338 0.991,1.275 1.274,2.443 1.274,6.871 0,4.391 -0.283,5.561 -1.274,6.834 -1.027,1.346 -2.622,2.338 -4.817,2.338 -1.842,0 -3.294,-0.85 -4.64,-2.125 l -0.013,14.23 c 1.204,-1.416 2.833,-2.125 4.745,-2.125 2.798,0 5.985,2.16 5.985,6.232 l 0,11.936 -3.612,0 0,-10.695 c 0,-2.445 -1.523,-3.861 -3.542,-3.861 -2.054,0 -3.576,1.416 -3.576,3.861 l 0,10.695 -3.613,0 z"
         inkscape:connector-curvature="0"
         style="fill:#000000;fill-opacity:1" />
    </g>
    <g
       style="font-style:normal;font-variant:normal;font-weight:normal;font-stretch:normal;font-size:40px;line-height:125%;font-family:BrowalliaUPC;-inkscape-font-specification:'BrowalliaUPC, Normal';text-align:start;letter-spacing:0px;word-spacing:0px;writing-mode:lr-tb;text-anchor:start;fill:#000000;fill-opacity:1;stroke:none;stroke-width:1px;stroke-linecap:butt;stroke-linejoin:miter;stroke-opacity:1"
       id="text3407"
       transform="translate(-0.06313453,-0.75761441)">
      <path
         d="m 22.914574,1016.4959 0.439453,-0.04 q 0.05127,0.4212 0.336914,0.6153 0.285644,0.1941 0.695801,0.1941 0.435791,0 0.651855,-0.1722 0.219727,-0.1757 0.219727,-0.4248 0,-0.1721 -0.109864,-0.2966 -0.106201,-0.1282 -0.292968,-0.1941 -0.186768,-0.07 -0.666504,-0.1794 -0.355225,-0.081 -0.596924,-0.1868 -0.241699,-0.1062 -0.391846,-0.3076 -0.150146,-0.2014 -0.150146,-0.4834 0,-0.3003 0.142822,-0.5091 0.146484,-0.2087 0.435791,-0.3295 0.289307,-0.1246 0.651855,-0.1246 0.633545,0 0.963135,0.2894 0.333252,0.2893 0.355225,0.758 l -0.443115,0.033 q -0.07324,-0.6739 -0.853272,-0.6739 -0.805664,0 -0.805664,0.5274 0,0.1538 0.09888,0.2673 0.09888,0.1099 0.252686,0.1648 0.15747,0.055 0.483398,0.1282 0.578613,0.1318 0.783691,0.227 0.205079,0.095 0.333252,0.2234 0.128174,0.1245 0.19043,0.282 0.06592,0.1575 0.06592,0.3479 0,0.4907 -0.377197,0.7691 -0.377198,0.2783 -0.91919,0.2783 -0.725097,0 -1.098633,-0.326 -0.373535,-0.3259 -0.395507,-0.8569 z"
         style="font-style:normal;font-variant:normal;font-weight:normal;font-stretch:normal;font-size:7.5px;line-height:125%;font-family:BrowalliaUPC;-inkscape-font-specification:'BrowalliaUPC, Normal';text-align:start;writing-mode:lr-tb;text-anchor:start"
         id="path4336"
         inkscape:connector-curvature="0" />
      <path
         d="m 27.902367,1018.5943 0,-1.2451 q -0.234375,0.3296 -0.662842,0.3296 -0.249024,0 -0.45044,-0.099 -0.201416,-0.099 -0.355224,-0.293 -0.150147,-0.1977 -0.227051,-0.4358 -0.07324,-0.2417 -0.07324,-0.5236 0,-0.6519 0.311279,-0.9778 0.314942,-0.326 0.758057,-0.326 0.472412,0 0.743408,0.3956 l 0,-0.337 0.388184,0 0,3.512 -0.432129,0 z m -1.325684,-2.2522 q 0,0.293 0.08057,0.5164 0.08423,0.2197 0.2417,0.3442 0.15747,0.1208 0.373535,0.1208 0.333252,0 0.501709,-0.2709 0.172119,-0.2747 0.172119,-0.6702 0,-0.4431 -0.186768,-0.7288 -0.186767,-0.2893 -0.512695,-0.2893 -0.333252,0 -0.501709,0.2783 -0.168457,0.2747 -0.168457,0.6995 z"
         style="font-style:normal;font-variant:normal;font-weight:normal;font-stretch:normal;font-size:7.5px;line-height:125%;font-family:BrowalliaUPC;-inkscape-font-specification:'BrowalliaUPC, Normal';text-align:start;writing-mode:lr-tb;text-anchor:start"
         id="path4338"
         inkscape:connector-curvature="0" />
      <path
         d="m 30.670921,1017.6202 0,-0.3736 q -0.292968,0.4322 -0.805664,0.4322 -0.234375,0 -0.406494,-0.066 -0.168457,-0.066 -0.274658,-0.1978 -0.106201,-0.1318 -0.146484,-0.3003 -0.03662,-0.1721 -0.03662,-0.4614 l 0,-1.5711 0.428467,0 0,1.4063 q 0,0.3296 0.02197,0.4468 0.02564,0.1135 0.08789,0.1977 0.06592,0.084 0.168457,0.1282 0.102539,0.044 0.245361,0.044 0.256348,0 0.413818,-0.1135 0.157471,-0.1172 0.20874,-0.3003 0.05127,-0.1831 0.05127,-0.4504 l 0,-1.3587 0.432129,0 0,2.5379 -0.388184,0 z"
         style="font-style:normal;font-variant:normal;font-weight:normal;font-stretch:normal;font-size:7.5px;line-height:125%;font-family:BrowalliaUPC;-inkscape-font-specification:'BrowalliaUPC, Normal';text-align:start;writing-mode:lr-tb;text-anchor:start"
         id="path4340"
         inkscape:connector-curvature="0" />
      <path
         d="m 33.391869,1017.3052 q -0.439454,0.3736 -0.9375,0.3736 -0.395508,0 -0.633545,-0.1941 -0.234375,-0.1978 -0.234375,-0.5347 0,-0.1941 0.08423,-0.3479 0.08423,-0.1538 0.27832,-0.271 0.194092,-0.1208 0.637208,-0.1758 0.531005,-0.066 0.769042,-0.1464 l 0,-0.1136 q 0,-0.5163 -0.611572,-0.5163 -0.333252,0 -0.46875,0.1245 -0.131836,0.1245 -0.194092,0.3589 l -0.41748,-0.055 q 0.164795,-0.7837 1.142578,-0.7837 0.274658,0 0.46875,0.059 0.197754,0.059 0.318604,0.1758 0.124511,0.1172 0.161132,0.2637 0.03662,0.1465 0.03662,0.4614 l 0,1.117 q 0,0.081 0.0293,0.2343 0.03296,0.1538 0.106202,0.2857 l -0.45044,0 q -0.06592,-0.1355 -0.08423,-0.315 z m -0.03662,-0.9594 q -0.22705,0.091 -0.703125,0.1611 -0.384521,0.055 -0.494384,0.1648 -0.109864,0.1099 -0.109864,0.2673 0,0.4029 0.509034,0.4029 0.179443,0 0.322265,-0.044 0.142823,-0.048 0.245362,-0.1428 0.106201,-0.095 0.168457,-0.2344 0.06226,-0.1428 0.06226,-0.4175 l 0,-0.1574 z"
         style="font-style:normal;font-variant:normal;font-weight:normal;font-stretch:normal;font-size:7.5px;line-height:125%;font-family:BrowalliaUPC;-inkscape-font-specification:'BrowalliaUPC, Normal';text-align:start;writing-mode:lr-tb;text-anchor:start"
         id="path4342"
         inkscape:connector-curvature="0" />
      <path
         d="m 34.45388,1017.6202 0,-2.5379 0.388184,0 0,0.3846 q 0.241699,-0.4432 0.549316,-0.4432 0.216065,0 0.439453,0.1392 l -0.146484,0.3992 q -0.157471,-0.095 -0.314941,-0.095 -0.164795,0 -0.274659,0.091 -0.106201,0.092 -0.161132,0.3003 -0.05127,0.2087 -0.05127,0.4321 l 0,1.3294 -0.428467,0 z"
         style="font-style:normal;font-variant:normal;font-weight:normal;font-stretch:normal;font-size:7.5px;line-height:125%;font-family:BrowalliaUPC;-inkscape-font-specification:'BrowalliaUPC, Normal';text-align:start;writing-mode:lr-tb;text-anchor:start"
         id="path4344"
         inkscape:connector-curvature="0" />
      <path
         d="m 37.823021,1016.8035 0.443115,0.055 q -0.219726,0.8203 -1.116943,0.8203 -0.38086,0 -0.651856,-0.1538 -0.267334,-0.1575 -0.413818,-0.4468 -0.142822,-0.293 -0.142822,-0.7068 0,-0.6189 0.318603,-0.9814 0.318604,-0.3663 0.86792,-0.3663 0.12085,0 0.230713,0.018 0.106201,0.018 0.205078,0.055 0.09888,0.037 0.183106,0.091 0.08789,0.055 0.161132,0.1245 0.0769,0.077 0.139161,0.1685 0.06592,0.095 0.113525,0.2014 0.04395,0.1062 0.07324,0.2307 0.0293,0.1209 0.04028,0.2564 0.0037,0.04 0.0037,0.2893 l -1.89331,0 q 0.02197,0.3992 0.227051,0.6335 0.205078,0.2307 0.541992,0.2307 0.483398,0 0.670166,-0.52 z m -1.413574,-0.6958 1.417236,0 q -0.0293,-0.3662 -0.223389,-0.5456 -0.194091,-0.1831 -0.472412,-0.1831 -0.205078,0 -0.358886,0.091 -0.153809,0.088 -0.252686,0.249 -0.09521,0.1612 -0.109863,0.3882 z"
         style="font-style:normal;font-variant:normal;font-weight:normal;font-stretch:normal;font-size:7.5px;line-height:125%;font-family:BrowalliaUPC;-inkscape-font-specification:'BrowalliaUPC, Normal';text-align:start;writing-mode:lr-tb;text-anchor:start"
         id="path4346"
         inkscape:connector-curvature="0" />
      <path
         d="m 40.613548,1017.6202 0,-3.5047 0.461426,0 0,3.5047 -0.461426,0 z"
         style="font-style:normal;font-variant:normal;font-weight:normal;font-stretch:normal;font-size:7.5px;line-height:125%;font-family:BrowalliaUPC;-inkscape-font-specification:'BrowalliaUPC, Normal';text-align:start;writing-mode:lr-tb;text-anchor:start"
         id="path4348"
         inkscape:connector-curvature="0" />
      <path
         d="m 41.840355,1017.6202 0,-2.5379 0.388184,0 0,0.3589 q 0.27832,-0.4175 0.809326,-0.4175 0.864257,0 0.864257,0.9229 l 0,1.6736 -0.428466,0 0,-1.5454 q 0,-0.6775 -0.527344,-0.6775 -0.673828,0 -0.673828,0.8349 l 0,1.388 -0.432129,0 z"
         style="font-style:normal;font-variant:normal;font-weight:normal;font-stretch:normal;font-size:7.5px;line-height:125%;font-family:BrowalliaUPC;-inkscape-font-specification:'BrowalliaUPC, Normal';text-align:start;writing-mode:lr-tb;text-anchor:start"
         id="path4350"
         inkscape:connector-curvature="0" />
      <path
         d="m 46.2239,1016.69 0.421142,0.055 q -0.06592,0.4285 -0.3479,0.6812 -0.281982,0.2527 -0.706787,0.2527 -0.545654,0 -0.853272,-0.3516 -0.303955,-0.3552 -0.303955,-0.9668 0,-0.4394 0.135498,-0.7324 0.135498,-0.2966 0.413819,-0.4504 0.27832,-0.1539 0.60791,-0.1539 0.860596,0 1.014404,0.802 l -0.41748,0.066 q -0.12085,-0.5127 -0.578614,-0.5127 -0.732421,0 -0.732421,0.9704 0,0.9741 0.706787,0.9741 0.549316,0 0.640869,-0.6335 z"
         style="font-style:normal;font-variant:normal;font-weight:normal;font-stretch:normal;font-size:7.5px;line-height:125%;font-family:BrowalliaUPC;-inkscape-font-specification:'BrowalliaUPC, Normal';text-align:start;writing-mode:lr-tb;text-anchor:start"
         id="path4352"
         inkscape:connector-curvature="0" />
      <path
         d="m 47.011253,1017.6202 0,-3.5047 0.432129,0 0,1.2561 q 0.300293,-0.3479 0.758057,-0.3479 0.336914,0 0.53833,0.1319 0.205078,0.1282 0.270996,0.3442 0.06958,0.2124 0.06958,0.5127 l 0,1.6077 -0.432129,0 0,-1.6077 q 0,-0.6189 -0.534668,-0.6189 -0.245361,0 -0.402832,0.1135 -0.15747,0.1136 -0.212402,0.293 -0.05493,0.1795 -0.05493,0.4321 l 0,1.388 -0.432129,0 z"
         style="font-style:normal;font-variant:normal;font-weight:normal;font-stretch:normal;font-size:7.5px;line-height:125%;font-family:BrowalliaUPC;-inkscape-font-specification:'BrowalliaUPC, Normal';text-align:start;writing-mode:lr-tb;text-anchor:start"
         id="path4354"
         inkscape:connector-curvature="0" />
    </g>
    <g
       style="font-style:normal;font-variant:normal;font-weight:normal;font-stretch:normal;font-size:40px;line-height:125%;font-family:BrowalliaUPC;-inkscape-font-specification:'BrowalliaUPC, Normal';text-align:start;letter-spacing:0px;word-spacing:0px;writing-mode:lr-tb;text-anchor:start;fill:#000000;fill-opacity:1;stroke:none;stroke-width:1px;stroke-linecap:butt;stroke-linejoin:miter;stroke-opacity:1"
       id="text3407-5"
       transform="translate(-1.4520943,0.44194174)">
      <path
         d="m 28.253031,1038.0828 0,-3.5047 1.314697,0 q 0.60791,0 0.882568,0.2674 0.278321,0.2636 0.278321,0.6298 0,0.5018 -0.490723,0.7435 0.662842,0.194 0.662842,0.8496 0,1.0144 -1.311035,1.0144 l -1.33667,0 z m 0.465088,-2.0325 0.758056,0 q 0.256348,0 0.417481,-0.033 0.164795,-0.037 0.270996,-0.1574 0.109863,-0.1245 0.109863,-0.3296 0,-0.2124 -0.09888,-0.3369 -0.09521,-0.1282 -0.267334,-0.1648 -0.172119,-0.037 -0.490722,-0.037 l -0.699463,0 0,1.0584 z m 0,1.6186 0.871582,0 q 0.172119,0 0.303955,-0.015 0.131836,-0.018 0.26001,-0.088 0.128173,-0.07 0.194091,-0.1941 0.06958,-0.1282 0.06958,-0.3039 0,-0.2857 -0.183105,-0.4432 -0.183106,-0.1611 -0.706787,-0.1611 l -0.809326,0 0,1.2048 z"
         style="font-style:normal;font-variant:normal;font-weight:normal;font-stretch:normal;font-size:7.5px;line-height:125%;font-family:BrowalliaUPC;-inkscape-font-specification:'BrowalliaUPC, Normal';text-align:start;writing-mode:lr-tb;text-anchor:start"
         id="path4307"
         inkscape:connector-curvature="0" />
      <path
         d="m 31.464701,1039.0605 -0.04761,-0.4028 q 0.13916,0.037 0.245362,0.037 0.150146,0 0.245361,-0.059 0.09888,-0.059 0.13916,-0.1501 0.04395,-0.092 0.146484,-0.3772 l 0.01099,-0.022 -0.963135,-2.5415 0.461426,0 0.527344,1.4685 q 0.117187,0.3296 0.186767,0.5896 0.06958,-0.2893 0.175781,-0.5786 l 0.541993,-1.4795 0.432128,0 -0.966796,2.5818 q -0.139161,0.3699 -0.234375,0.5603 -0.09522,0.1941 -0.252686,0.3076 -0.157471,0.1172 -0.369873,0.1172 -0.124512,0 -0.27832,-0.051 z"
         style="font-style:normal;font-variant:normal;font-weight:normal;font-stretch:normal;font-size:7.5px;line-height:125%;font-family:BrowalliaUPC;-inkscape-font-specification:'BrowalliaUPC, Normal';text-align:start;writing-mode:lr-tb;text-anchor:start"
         id="path4309"
         inkscape:connector-curvature="0" />
      <path
         d="m 35.408792,1037.0867 0.417481,-0.055 q 0.0293,0.6958 0.520019,0.6958 0.208741,0 0.32959,-0.088 0.12085,-0.091 0.157471,-0.2417 0.03662,-0.1538 0.03662,-0.4064 l 0,-2.4134 0.465088,0 0,2.3877 q 0,0.6153 -0.252686,0.8972 -0.249023,0.2784 -0.732421,0.2784 -0.479737,0 -0.717774,-0.2637 -0.234375,-0.2637 -0.223389,-0.791 z"
         style="font-style:normal;font-variant:normal;font-weight:normal;font-stretch:normal;font-size:7.5px;line-height:125%;font-family:BrowalliaUPC;-inkscape-font-specification:'BrowalliaUPC, Normal';text-align:start;writing-mode:lr-tb;text-anchor:start"
         id="path4311"
         inkscape:connector-curvature="0" />
      <path
         d="m 39.704447,1037.7678 q -0.439453,0.3736 -0.9375,0.3736 -0.395508,0 -0.633545,-0.1941 -0.234375,-0.1978 -0.234375,-0.5347 0,-0.1941 0.08423,-0.3479 0.08423,-0.1538 0.278321,-0.271 0.194091,-0.1208 0.637207,-0.1758 0.531006,-0.066 0.769043,-0.1465 l 0,-0.1135 q 0,-0.5163 -0.611573,-0.5163 -0.333252,0 -0.46875,0.1245 -0.131836,0.1245 -0.194091,0.3589 l -0.417481,-0.055 q 0.164795,-0.7837 1.142578,-0.7837 0.274658,0 0.46875,0.059 0.197754,0.059 0.318604,0.1758 0.124512,0.1172 0.161133,0.2637 0.03662,0.1465 0.03662,0.4614 l 0,1.1169 q 0,0.081 0.0293,0.2344 0.03296,0.1538 0.106201,0.2857 l -0.45044,0 q -0.06592,-0.1355 -0.08423,-0.315 z m -0.03662,-0.9595 q -0.227051,0.092 -0.703125,0.1612 -0.384522,0.055 -0.494385,0.1648 -0.109863,0.1098 -0.109863,0.2673 0,0.4028 0.509033,0.4028 0.179443,0 0.322265,-0.044 0.142823,-0.048 0.245362,-0.1428 0.106201,-0.095 0.168457,-0.2344 0.06226,-0.1428 0.06226,-0.4175 l 0,-0.1575 z"
         style="font-style:normal;font-variant:normal;font-weight:normal;font-stretch:normal;font-size:7.5px;line-height:125%;font-family:BrowalliaUPC;-inkscape-font-specification:'BrowalliaUPC, Normal';text-align:start;writing-mode:lr-tb;text-anchor:start"
         id="path4313"
         inkscape:connector-curvature="0" />
      <path
         d="m 42.429056,1037.1526 0.421143,0.055 q -0.06592,0.4285 -0.347901,0.6812 -0.281982,0.2527 -0.706787,0.2527 -0.545654,0 -0.853271,-0.3516 -0.303955,-0.3552 -0.303955,-0.9668 0,-0.4395 0.135498,-0.7324 0.135498,-0.2967 0.413818,-0.4505 0.27832,-0.1538 0.60791,-0.1538 0.860596,0 1.014405,0.802 l -0.417481,0.066 q -0.12085,-0.5126 -0.578613,-0.5126 -0.732422,0 -0.732422,0.9704 0,0.9741 0.706787,0.9741 0.549316,0 0.640869,-0.6335 z"
         style="font-style:normal;font-variant:normal;font-weight:normal;font-stretch:normal;font-size:7.5px;line-height:125%;font-family:BrowalliaUPC;-inkscape-font-specification:'BrowalliaUPC, Normal';text-align:start;writing-mode:lr-tb;text-anchor:start"
         id="path4315"
         inkscape:connector-curvature="0" />
      <path
         d="m 43.055277,1036.812 q 0,-0.6592 0.336914,-0.9924 0.336914,-0.3333 0.853271,-0.3333 0.325928,0 0.585938,0.1355 0.26001,0.1319 0.432129,0.4248 0.172119,0.293 0.172119,0.7325 0,0.6994 -0.3479,1.0327 -0.344239,0.3296 -0.842286,0.3296 -0.373535,0 -0.637207,-0.1575 -0.263671,-0.1611 -0.410156,-0.4578 -0.142822,-0.2966 -0.142822,-0.7141 z m 0.443115,0 q 0,0.3113 0.09155,0.531 0.09522,0.2197 0.256347,0.3333 0.164795,0.1098 0.39917,0.1098 0.362549,0 0.552979,-0.2673 0.194092,-0.2673 0.194092,-0.7214 0,-0.4358 -0.197754,-0.6958 -0.197754,-0.26 -0.549317,-0.26 -0.377197,0 -0.563964,0.2783 -0.183106,0.2746 -0.183106,0.6921 z"
         style="font-style:normal;font-variant:normal;font-weight:normal;font-stretch:normal;font-size:7.5px;line-height:125%;font-family:BrowalliaUPC;-inkscape-font-specification:'BrowalliaUPC, Normal';text-align:start;writing-mode:lr-tb;text-anchor:start"
         id="path4317"
         inkscape:connector-curvature="0" />
      <path
         d="m 46.336527,1038.0828 -0.39917,0 0,-3.5047 0.432129,0 0,1.2488 q 0.270996,-0.3406 0.695801,-0.3406 0.329589,0 0.563964,0.1575 0.238038,0.1575 0.373536,0.4468 0.13916,0.2893 0.13916,0.6848 0,0.6042 -0.303955,0.9851 -0.300293,0.3809 -0.794678,0.3809 -0.450439,0 -0.706787,-0.3772 l 0,0.3186 z m -0.0037,-1.2891 q 0,0.3772 0.08057,0.575 0.08423,0.1977 0.241699,0.3076 0.157471,0.1098 0.351563,0.1098 0.318603,0 0.505371,-0.271 0.19043,-0.2746 0.19043,-0.7031 0,-0.3039 -0.08423,-0.52 -0.08423,-0.2197 -0.234375,-0.3333 -0.146484,-0.1171 -0.355224,-0.1171 -0.336915,0 -0.516358,0.2819 -0.179443,0.2784 -0.179443,0.6702 z"
         style="font-style:normal;font-variant:normal;font-weight:normal;font-stretch:normal;font-size:7.5px;line-height:125%;font-family:BrowalliaUPC;-inkscape-font-specification:'BrowalliaUPC, Normal';text-align:start;writing-mode:lr-tb;text-anchor:start"
         id="path4319"
         inkscape:connector-curvature="0" />
      <path
         d="m 52.891703,1036.8523 0.465088,0.1172 q -0.300293,1.1719 -1.453858,1.1719 -0.845947,0 -1.245117,-0.5274 -0.39917,-0.531 -0.39917,-1.311 0,-0.8863 0.476074,-1.333 0.476074,-0.4505 1.175537,-0.4505 1.087647,0 1.384278,1.0181 l -0.454102,0.1099 q -0.234375,-0.7325 -0.9375,-0.7325 -0.567627,0 -0.86792,0.3663 -0.300293,0.3662 -0.300293,1.0217 0,0.758 0.322266,1.1023 0.325928,0.3405 0.809326,0.3405 0.831299,0 1.025391,-0.8935 z"
         style="font-style:normal;font-variant:normal;font-weight:normal;font-stretch:normal;font-size:7.5px;line-height:125%;font-family:BrowalliaUPC;-inkscape-font-specification:'BrowalliaUPC, Normal';text-align:start;writing-mode:lr-tb;text-anchor:start"
         id="path4321"
         inkscape:connector-curvature="0" />
      <path
         d="m 53.862162,1038.0828 0,-2.5379 0.388183,0 0,0.3845 q 0.241699,-0.4431 0.549317,-0.4431 0.216064,0 0.439453,0.1392 l -0.146485,0.3992 q -0.15747,-0.095 -0.314941,-0.095 -0.164795,0 -0.274658,0.092 -0.106201,0.091 -0.161133,0.3003 -0.05127,0.2087 -0.05127,0.4321 l 0,1.3294 -0.428466,0 z"
         style="font-style:normal;font-variant:normal;font-weight:normal;font-stretch:normal;font-size:7.5px;line-height:125%;font-family:BrowalliaUPC;-inkscape-font-specification:'BrowalliaUPC, Normal';text-align:start;writing-mode:lr-tb;text-anchor:start"
         id="path4323"
         inkscape:connector-curvature="0" />
      <path
         d="m 57.231302,1037.2661 0.443115,0.055 q -0.219726,0.8204 -1.116943,0.8204 -0.380859,0 -0.651855,-0.1539 -0.267334,-0.1574 -0.413819,-0.4467 -0.142822,-0.293 -0.142822,-0.7068 0,-0.6189 0.318604,-0.9815 0.318603,-0.3662 0.867919,-0.3662 0.12085,0 0.230713,0.018 0.106202,0.018 0.205078,0.055 0.09888,0.037 0.183106,0.091 0.08789,0.055 0.161133,0.1245 0.0769,0.077 0.13916,0.1685 0.06592,0.095 0.113525,0.2014 0.04395,0.1062 0.07324,0.2307 0.0293,0.1209 0.04028,0.2564 0.0037,0.04 0.0037,0.2893 l -1.893311,0 q 0.02197,0.3991 0.227051,0.6335 0.205078,0.2307 0.541992,0.2307 0.483399,0 0.670166,-0.52 z m -1.413574,-0.6958 1.417236,0 q -0.0293,-0.3662 -0.223388,-0.5456 -0.194092,-0.1831 -0.472412,-0.1831 -0.205079,0 -0.358887,0.091 -0.153809,0.088 -0.252686,0.249 -0.09522,0.1612 -0.109863,0.3882 z"
         style="font-style:normal;font-variant:normal;font-weight:normal;font-stretch:normal;font-size:7.5px;line-height:125%;font-family:BrowalliaUPC;-inkscape-font-specification:'BrowalliaUPC, Normal';text-align:start;writing-mode:lr-tb;text-anchor:start"
         id="path4325"
         inkscape:connector-curvature="0" />
      <path
         d="m 59.955912,1037.2661 0.443115,0.055 q -0.219727,0.8204 -1.116943,0.8204 -0.38086,0 -0.651856,-0.1539 -0.267334,-0.1574 -0.413818,-0.4467 -0.142823,-0.293 -0.142823,-0.7068 0,-0.6189 0.318604,-0.9815 0.318603,-0.3662 0.86792,-0.3662 0.120849,0 0.230713,0.018 0.106201,0.018 0.205078,0.055 0.09888,0.037 0.183105,0.091 0.08789,0.055 0.161133,0.1245 0.0769,0.077 0.13916,0.1685 0.06592,0.095 0.113526,0.2014 0.04395,0.1062 0.07324,0.2307 0.0293,0.1209 0.04028,0.2564 0.0037,0.04 0.0037,0.2893 l -1.89331,0 q 0.02197,0.3991 0.22705,0.6335 0.205079,0.2307 0.541993,0.2307 0.483398,0 0.670166,-0.52 z m -1.413575,-0.6958 1.417237,0 q -0.0293,-0.3662 -0.223389,-0.5456 -0.194092,-0.1831 -0.472412,-0.1831 -0.205078,0 -0.358887,0.091 -0.153808,0.088 -0.252685,0.249 -0.09521,0.1612 -0.109864,0.3882 z"
         style="font-style:normal;font-variant:normal;font-weight:normal;font-stretch:normal;font-size:7.5px;line-height:125%;font-family:BrowalliaUPC;-inkscape-font-specification:'BrowalliaUPC, Normal';text-align:start;writing-mode:lr-tb;text-anchor:start"
         id="path4327"
         inkscape:connector-curvature="0" />
      <path
         d="m 62.588968,1038.0828 0,-0.3186 q -0.241699,0.3772 -0.710449,0.3772 -0.509033,0 -0.802002,-0.3809 -0.289307,-0.3845 -0.289307,-0.9448 0,-0.4138 0.135499,-0.7141 0.135498,-0.3003 0.369873,-0.4578 0.234375,-0.1575 0.567627,-0.1575 0.446777,0 0.699462,0.3479 l 0,-1.2561 0.428467,0 0,3.5047 -0.39917,0 z m -1.362304,-1.2671 q 0,0.2856 0.08057,0.5053 0.08423,0.2198 0.238037,0.3443 0.157471,0.1208 0.373535,0.1208 0.314942,0 0.494385,-0.2527 0.183105,-0.2563 0.183105,-0.6811 0,-0.4724 -0.183105,-0.7398 -0.183105,-0.2709 -0.512695,-0.2709 -0.673828,0 -0.673828,0.9741 z"
         style="font-style:normal;font-variant:normal;font-weight:normal;font-stretch:normal;font-size:7.5px;line-height:125%;font-family:BrowalliaUPC;-inkscape-font-specification:'BrowalliaUPC, Normal';text-align:start;writing-mode:lr-tb;text-anchor:start"
         id="path4329"
         inkscape:connector-curvature="0" />
      <path
         d="m 63.504496,1036.812 q 0,-0.6592 0.336914,-0.9924 0.336914,-0.3333 0.853271,-0.3333 0.325928,0 0.585938,0.1355 0.260009,0.1319 0.432129,0.4248 0.172119,0.293 0.172119,0.7325 0,0.6994 -0.347901,1.0327 -0.344238,0.3296 -0.842285,0.3296 -0.373535,0 -0.637207,-0.1575 -0.263672,-0.1611 -0.410156,-0.4578 -0.142822,-0.2966 -0.142822,-0.7141 z m 0.443115,0 q 0,0.3113 0.09155,0.531 0.09521,0.2197 0.256347,0.3333 0.164795,0.1098 0.39917,0.1098 0.362549,0 0.552979,-0.2673 0.194091,-0.2673 0.194091,-0.7214 0,-0.4358 -0.197753,-0.6958 -0.197754,-0.26 -0.549317,-0.26 -0.377197,0 -0.563965,0.2783 -0.183105,0.2746 -0.183105,0.6921 z"
         style="font-style:normal;font-variant:normal;font-weight:normal;font-stretch:normal;font-size:7.5px;line-height:125%;font-family:BrowalliaUPC;-inkscape-font-specification:'BrowalliaUPC, Normal';text-align:start;writing-mode:lr-tb;text-anchor:start"
         id="path4331"
         inkscape:connector-curvature="0" />
      <path
         d="m 66.390238,1038.0828 0,-2.5379 0.388183,0 0,0.3589 q 0.278321,-0.4175 0.809327,-0.4175 0.864257,0 0.864257,0.9229 l 0,1.6736 -0.428466,0 0,-1.5454 q 0,-0.6775 -0.527344,-0.6775 -0.673828,0 -0.673828,0.8349 l 0,1.388 -0.432129,0 z"
         style="font-style:normal;font-variant:normal;font-weight:normal;font-stretch:normal;font-size:7.5px;line-height:125%;font-family:BrowalliaUPC;-inkscape-font-specification:'BrowalliaUPC, Normal';text-align:start;writing-mode:lr-tb;text-anchor:start"
         id="path4333"
         inkscape:connector-curvature="0" />
    </g>
    <g
       style="font-style:normal;font-variant:normal;font-weight:normal;font-stretch:normal;font-size:40px;line-height:125%;font-family:BrowalliaUPC;-inkscape-font-specification:'BrowalliaUPC, Normal';text-align:start;letter-spacing:0px;word-spacing:0px;writing-mode:lr-tb;text-anchor:start;fill:#000000;fill-opacity:1;stroke:none;stroke-width:1px;stroke-linecap:butt;stroke-linejoin:miter;stroke-opacity:1"
       id="text3407-5-8"
       transform="translate(-1.4520943,0.44194174)">
      <path
         d="m 28.253031,1043.9095 0,-2.3364 0.288086,0 0,0.8374 q 0.200195,-0.2319 0.505371,-0.2319 0.224609,0 0.358887,0.088 0.136718,0.085 0.180664,0.2295 0.04639,0.1416 0.04639,0.3418 l 0,1.0717 -0.288086,0 0,-1.0717 q 0,-0.4126 -0.356445,-0.4126 -0.163574,0 -0.268555,0.076 -0.10498,0.076 -0.141601,0.1953 -0.03662,0.1196 -0.03662,0.2881 l 0,0.9252 -0.288086,0 z"
         style="font-style:normal;font-variant:normal;font-weight:normal;font-stretch:normal;font-size:5px;line-height:125%;font-family:BrowalliaUPC;-inkscape-font-specification:'BrowalliaUPC, Normal';text-align:start;writing-mode:lr-tb;text-anchor:start"
         id="path4258"
         inkscape:connector-curvature="0" />
      <path
         d="m 31.175394,1043.6996 q -0.292969,0.249 -0.625,0.249 -0.263672,0 -0.422363,-0.1294 -0.15625,-0.1318 -0.15625,-0.3564 0,-0.1294 0.05615,-0.232 0.05615,-0.1025 0.185547,-0.1806 0.129395,-0.081 0.424805,-0.1172 0.354004,-0.044 0.512695,-0.098 l 0,-0.076 q 0,-0.3442 -0.407715,-0.3442 -0.222168,0 -0.3125,0.083 -0.08789,0.083 -0.129394,0.2393 l -0.278321,-0.037 q 0.109864,-0.5224 0.761719,-0.5224 0.183106,0 0.3125,0.039 0.131836,0.039 0.212402,0.1171 0.08301,0.078 0.107422,0.1758 0.02441,0.098 0.02441,0.3076 l 0,0.7447 q 0,0.054 0.01953,0.1562 0.02197,0.1026 0.0708,0.1904 l -0.300293,0 q -0.04395,-0.09 -0.05615,-0.2099 z m -0.02441,-0.6397 q -0.151367,0.061 -0.46875,0.1075 -0.256348,0.037 -0.32959,0.1098 -0.07324,0.073 -0.07324,0.1782 0,0.2686 0.339355,0.2686 0.119629,0 0.214844,-0.029 0.09521,-0.032 0.163574,-0.095 0.0708,-0.063 0.112305,-0.1563 0.0415,-0.095 0.0415,-0.2783 l 0,-0.105 z"
         style="font-style:normal;font-variant:normal;font-weight:normal;font-stretch:normal;font-size:5px;line-height:125%;font-family:BrowalliaUPC;-inkscape-font-specification:'BrowalliaUPC, Normal';text-align:start;writing-mode:lr-tb;text-anchor:start"
         id="path4260"
         inkscape:connector-curvature="0" />
      <path
         d="m 32.9918,1043.2894 0.280762,0.037 q -0.04395,0.2857 -0.231934,0.4542 -0.187988,0.1684 -0.471191,0.1684 -0.36377,0 -0.568848,-0.2344 -0.202636,-0.2368 -0.202636,-0.6445 0,-0.293 0.09033,-0.4883 0.09033,-0.1977 0.275879,-0.3003 0.185546,-0.1025 0.405273,-0.1025 0.57373,0 0.67627,0.5347 l -0.278321,0.044 q -0.08057,-0.3418 -0.385742,-0.3418 -0.488281,0 -0.488281,0.647 0,0.6494 0.471191,0.6494 0.366211,0 0.427246,-0.4224 z"
         style="font-style:normal;font-variant:normal;font-weight:normal;font-stretch:normal;font-size:5px;line-height:125%;font-family:BrowalliaUPC;-inkscape-font-specification:'BrowalliaUPC, Normal';text-align:start;writing-mode:lr-tb;text-anchor:start"
         id="path4262"
         inkscape:connector-curvature="0" />
      <path
         d="m 33.519144,1043.9095 0,-2.3364 0.285645,0 0,1.333 0.678711,-0.6884 0.371093,0 -0.646972,0.6274 0.71289,1.0644 -0.354004,0 -0.559082,-0.8642 -0.202636,0.1929 0,0.6713 -0.285645,0 z"
         style="font-style:normal;font-variant:normal;font-weight:normal;font-stretch:normal;font-size:5px;line-height:125%;font-family:BrowalliaUPC;-inkscape-font-specification:'BrowalliaUPC, Normal';text-align:start;writing-mode:lr-tb;text-anchor:start"
         id="path4264"
         inkscape:connector-curvature="0" />
      <path
         d="m 36.253519,1043.6996 q -0.292969,0.249 -0.625,0.249 -0.263672,0 -0.422363,-0.1294 -0.15625,-0.1318 -0.15625,-0.3564 0,-0.1294 0.05615,-0.232 0.05615,-0.1025 0.185547,-0.1806 0.129395,-0.081 0.424805,-0.1172 0.354004,-0.044 0.512695,-0.098 l 0,-0.076 q 0,-0.3442 -0.407715,-0.3442 -0.222168,0 -0.3125,0.083 -0.08789,0.083 -0.129394,0.2393 l -0.278321,-0.037 q 0.109864,-0.5224 0.761719,-0.5224 0.183106,0 0.3125,0.039 0.131836,0.039 0.212402,0.1171 0.08301,0.078 0.107422,0.1758 0.02441,0.098 0.02441,0.3076 l 0,0.7447 q 0,0.054 0.01953,0.1562 0.02197,0.1026 0.0708,0.1904 l -0.300293,0 q -0.04395,-0.09 -0.05615,-0.2099 z m -0.02441,-0.6397 q -0.151367,0.061 -0.46875,0.1075 -0.256348,0.037 -0.32959,0.1098 -0.07324,0.073 -0.07324,0.1782 0,0.2686 0.339355,0.2686 0.119629,0 0.214844,-0.029 0.09522,-0.032 0.163574,-0.095 0.0708,-0.063 0.112305,-0.1563 0.0415,-0.095 0.0415,-0.2783 l 0,-0.105 z"
         style="font-style:normal;font-variant:normal;font-weight:normal;font-stretch:normal;font-size:5px;line-height:125%;font-family:BrowalliaUPC;-inkscape-font-specification:'BrowalliaUPC, Normal';text-align:start;writing-mode:lr-tb;text-anchor:start"
         id="path4266"
         inkscape:connector-curvature="0" />
      <path
         d="m 38.062601,1043.9095 0,-0.2124 q -0.161133,0.2515 -0.473633,0.2515 -0.339355,0 -0.534668,-0.2539 -0.192871,-0.2563 -0.192871,-0.6299 0,-0.2759 0.09033,-0.4761 0.09033,-0.2002 0.246582,-0.3051 0.15625,-0.105 0.378418,-0.105 0.297852,0 0.466309,0.2319 l 0,-0.8374 0.285644,0 0,2.3364 -0.266113,0 z m -0.908203,-0.8447 q 0,0.1904 0.05371,0.3369 0.05615,0.1465 0.158691,0.2295 0.104981,0.081 0.249024,0.081 0.209961,0 0.32959,-0.1685 0.12207,-0.1709 0.12207,-0.4541 0,-0.3149 -0.12207,-0.4931 -0.122071,-0.1807 -0.341797,-0.1807 -0.449219,0 -0.449219,0.6494 z"
         style="font-style:normal;font-variant:normal;font-weight:normal;font-stretch:normal;font-size:5px;line-height:125%;font-family:BrowalliaUPC;-inkscape-font-specification:'BrowalliaUPC, Normal';text-align:start;writing-mode:lr-tb;text-anchor:start"
         id="path4268"
         inkscape:connector-curvature="0" />
      <path
         d="m 39.886332,1043.6996 q -0.292969,0.249 -0.625,0.249 -0.263672,0 -0.422364,-0.1294 -0.15625,-0.1318 -0.15625,-0.3564 0,-0.1294 0.05615,-0.232 0.05615,-0.1025 0.185546,-0.1806 0.129395,-0.081 0.424805,-0.1172 0.354004,-0.044 0.512695,-0.098 l 0,-0.076 q 0,-0.3442 -0.407714,-0.3442 -0.222168,0 -0.3125,0.083 -0.08789,0.083 -0.129395,0.2393 l -0.27832,-0.037 q 0.109863,-0.5224 0.761719,-0.5224 0.183105,0 0.3125,0.039 0.131835,0.039 0.212402,0.1171 0.08301,0.078 0.107422,0.1758 0.02441,0.098 0.02441,0.3076 l 0,0.7447 q 0,0.054 0.01953,0.1562 0.02197,0.1026 0.0708,0.1904 l -0.300293,0 q -0.04395,-0.09 -0.05615,-0.2099 z m -0.02442,-0.6397 q -0.151367,0.061 -0.46875,0.1075 -0.256347,0.037 -0.329589,0.1098 -0.07324,0.073 -0.07324,0.1782 0,0.2686 0.339356,0.2686 0.119629,0 0.214844,-0.029 0.09521,-0.032 0.163574,-0.095 0.0708,-0.063 0.112305,-0.1563 0.0415,-0.095 0.0415,-0.2783 l 0,-0.105 z"
         style="font-style:normal;font-variant:normal;font-weight:normal;font-stretch:normal;font-size:5px;line-height:125%;font-family:BrowalliaUPC;-inkscape-font-specification:'BrowalliaUPC, Normal';text-align:start;writing-mode:lr-tb;text-anchor:start"
         id="path4270"
         inkscape:connector-curvature="0" />
      <path
         d="m 40.584574,1044.5614 -0.03174,-0.2686 q 0.09277,0.024 0.163575,0.024 0.100097,0 0.163574,-0.039 0.06592,-0.039 0.09277,-0.1001 0.0293,-0.061 0.09766,-0.2515 l 0.0073,-0.015 -0.64209,-1.6943 0.307617,0 0.351563,0.979 q 0.07813,0.2197 0.124511,0.393 0.04639,-0.1928 0.117188,-0.3857 l 0.361328,-0.9863 0.288086,0 -0.644531,1.7211 q -0.09277,0.2466 -0.15625,0.3736 -0.06348,0.1294 -0.168457,0.2051 -0.104981,0.078 -0.246582,0.078 -0.08301,0 -0.185547,-0.034 z"
         style="font-style:normal;font-variant:normal;font-weight:normal;font-stretch:normal;font-size:5px;line-height:125%;font-family:BrowalliaUPC;-inkscape-font-specification:'BrowalliaUPC, Normal';text-align:start;writing-mode:lr-tb;text-anchor:start"
         id="path4272"
         inkscape:connector-curvature="0" />
      <path
         d="m 42.308207,1043.9095 0,-0.3271 0.327148,0 0,0.3271 -0.327148,0 z"
         style="font-style:normal;font-variant:normal;font-weight:normal;font-stretch:normal;font-size:5px;line-height:125%;font-family:BrowalliaUPC;-inkscape-font-specification:'BrowalliaUPC, Normal';text-align:start;writing-mode:lr-tb;text-anchor:start"
         id="path4274"
         inkscape:connector-curvature="0" />
      <path
         d="m 43.138285,1041.9027 0,-0.3296 0.285644,0 0,0.3296 -0.285644,0 z m 0,2.0068 0,-1.6918 0.285644,0 0,1.6918 -0.285644,0 z"
         style="font-style:normal;font-variant:normal;font-weight:normal;font-stretch:normal;font-size:5px;line-height:125%;font-family:BrowalliaUPC;-inkscape-font-specification:'BrowalliaUPC, Normal';text-align:start;writing-mode:lr-tb;text-anchor:start"
         id="path4276"
         inkscape:connector-curvature="0" />
      <path
         d="m 43.751078,1043.0624 q 0,-0.4395 0.224609,-0.6616 0.224609,-0.2222 0.568848,-0.2222 0.217285,0 0.390625,0.09 0.17334,0.088 0.288086,0.2832 0.114746,0.1953 0.114746,0.4883 0,0.4663 -0.231934,0.6885 -0.229492,0.2197 -0.561523,0.2197 -0.249024,0 -0.424805,-0.105 -0.175781,-0.1074 -0.273438,-0.3051 -0.09521,-0.1978 -0.09521,-0.4761 z m 0.29541,0 q 0,0.2075 0.06104,0.354 0.06348,0.1465 0.170898,0.2221 0.109864,0.073 0.266114,0.073 0.241699,0 0.368652,-0.1782 0.129395,-0.1783 0.129395,-0.481 0,-0.2905 -0.131836,-0.4639 -0.131836,-0.1733 -0.366211,-0.1733 -0.251465,0 -0.375977,0.1856 -0.12207,0.1831 -0.12207,0.4614 z"
         style="font-style:normal;font-variant:normal;font-weight:normal;font-stretch:normal;font-size:5px;line-height:125%;font-family:BrowalliaUPC;-inkscape-font-specification:'BrowalliaUPC, Normal';text-align:start;writing-mode:lr-tb;text-anchor:start"
         id="path4278"
         inkscape:connector-curvature="0" />
      <path
         d="m 45.460062,1043.9486 0.67627,-2.4145 0.229492,0 -0.673828,2.4145 -0.231934,0 z"
         style="font-style:normal;font-variant:normal;font-weight:normal;font-stretch:normal;font-size:5px;line-height:125%;font-family:BrowalliaUPC;-inkscape-font-specification:'BrowalliaUPC, Normal';text-align:start;writing-mode:lr-tb;text-anchor:start"
         id="path4280"
         inkscape:connector-curvature="0" />
      <path
         d="m 46.583109,1044.559 0,-2.3413 0.26123,0 0,0.2197 q 0.185547,-0.2588 0.490723,-0.2588 0.356445,0 0.537109,0.2563 0.180664,0.2564 0.180664,0.6153 0,0.4492 -0.22705,0.6738 -0.22461,0.2246 -0.510254,0.2246 -0.275879,0 -0.444336,-0.2148 l 0,0.8252 -0.288086,0 z m 0.26123,-1.4869 q 0,0.1954 0.05127,0.3394 0.05371,0.144 0.153808,0.2222 0.10254,0.078 0.246583,0.078 0.229492,0 0.346679,-0.1904 0.117188,-0.1905 0.117188,-0.4737 0,-0.2856 -0.122071,-0.4638 -0.12207,-0.1807 -0.329589,-0.1807 -0.219727,0 -0.341797,0.1978 -0.122071,0.1953 -0.122071,0.4711 z"
         style="font-style:normal;font-variant:normal;font-weight:normal;font-stretch:normal;font-size:5px;line-height:125%;font-family:BrowalliaUPC;-inkscape-font-specification:'BrowalliaUPC, Normal';text-align:start;writing-mode:lr-tb;text-anchor:start"
         id="path4282"
         inkscape:connector-curvature="0" />
      <path
         d="m 48.397074,1043.9095 0,-1.6918 0.258789,0 0,0.2563 q 0.161133,-0.2954 0.366211,-0.2954 0.144043,0 0.292968,0.093 l -0.09766,0.2661 q -0.10498,-0.063 -0.209961,-0.063 -0.109863,0 -0.183105,0.061 -0.0708,0.061 -0.107422,0.2002 -0.03418,0.1392 -0.03418,0.2881 l 0,0.8862 -0.285644,0 z"
         style="font-style:normal;font-variant:normal;font-weight:normal;font-stretch:normal;font-size:5px;line-height:125%;font-family:BrowalliaUPC;-inkscape-font-specification:'BrowalliaUPC, Normal';text-align:start;writing-mode:lr-tb;text-anchor:start"
         id="path4284"
         inkscape:connector-curvature="0" />
      <path
         d="m 49.376078,1043.0624 q 0,-0.4395 0.224609,-0.6616 0.224609,-0.2222 0.568848,-0.2222 0.217285,0 0.390625,0.09 0.17334,0.088 0.288086,0.2832 0.114746,0.1953 0.114746,0.4883 0,0.4663 -0.231934,0.6885 -0.229492,0.2197 -0.561523,0.2197 -0.249024,0 -0.424805,-0.105 -0.175781,-0.1074 -0.273438,-0.3051 -0.09521,-0.1978 -0.09521,-0.4761 z m 0.29541,0 q 0,0.2075 0.06104,0.354 0.06348,0.1465 0.170898,0.2221 0.109864,0.073 0.266114,0.073 0.241699,0 0.368652,-0.1782 0.129395,-0.1783 0.129395,-0.481 0,-0.2905 -0.131836,-0.4639 -0.131836,-0.1733 -0.366211,-0.1733 -0.251465,0 -0.375977,0.1856 -0.12207,0.1831 -0.12207,0.4614 z"
         style="font-style:normal;font-variant:normal;font-weight:normal;font-stretch:normal;font-size:5px;line-height:125%;font-family:BrowalliaUPC;-inkscape-font-specification:'BrowalliaUPC, Normal';text-align:start;writing-mode:lr-tb;text-anchor:start"
         id="path4286"
         inkscape:connector-curvature="0" />
      <path
         d="m 51.297464,1041.9052 0,-0.3321 0.288086,0 0,0.3321 -0.288086,0 z m -0.361328,2.6611 0.05371,-0.2442 q 0.08545,0.022 0.134278,0.022 0.07324,0 0.112304,-0.042 0.0415,-0.042 0.05127,-0.1074 0.0098,-0.066 0.0098,-0.2002 l 0,-1.7773 0.288086,0 0,1.7846 q 0,0.2075 -0.03662,0.3321 -0.03418,0.1269 -0.134277,0.1928 -0.09766,0.068 -0.253906,0.068 -0.117188,0 -0.22461,-0.029 z"
         style="font-style:normal;font-variant:normal;font-weight:normal;font-stretch:normal;font-size:5px;line-height:125%;font-family:BrowalliaUPC;-inkscape-font-specification:'BrowalliaUPC, Normal';text-align:start;writing-mode:lr-tb;text-anchor:start"
         id="path4288"
         inkscape:connector-curvature="0" />
      <path
         d="m 53.18223,1043.3651 0.29541,0.037 q -0.146484,0.5469 -0.744629,0.5469 -0.253906,0 -0.43457,-0.1025 -0.178223,-0.105 -0.275879,-0.2979 -0.09522,-0.1953 -0.09522,-0.4712 0,-0.4126 0.212403,-0.6543 0.212402,-0.2441 0.578613,-0.2441 0.08057,0 0.153808,0.012 0.0708,0.012 0.136719,0.037 0.06592,0.024 0.12207,0.061 0.05859,0.037 0.107422,0.083 0.05127,0.051 0.09277,0.1123 0.04395,0.063 0.07568,0.1342 0.0293,0.071 0.04883,0.1539 0.01953,0.081 0.02686,0.1708 0.0024,0.027 0.0024,0.1929 l -1.262207,0 q 0.01465,0.2661 0.151368,0.4224 0.136718,0.1538 0.361328,0.1538 0.322265,0 0.446777,-0.3467 z m -0.942383,-0.4639 0.944824,0 q -0.01953,-0.2441 -0.148925,-0.3637 -0.129395,-0.1221 -0.314942,-0.1221 -0.136719,0 -0.239258,0.061 -0.102539,0.059 -0.168457,0.1661 -0.06348,0.1074 -0.07324,0.2587 z"
         style="font-style:normal;font-variant:normal;font-weight:normal;font-stretch:normal;font-size:5px;line-height:125%;font-family:BrowalliaUPC;-inkscape-font-specification:'BrowalliaUPC, Normal';text-align:start;writing-mode:lr-tb;text-anchor:start"
         id="path4290"
         inkscape:connector-curvature="0" />
      <path
         d="m 54.944925,1043.2894 0.280762,0.037 q -0.04395,0.2857 -0.231934,0.4542 -0.187988,0.1684 -0.471191,0.1684 -0.36377,0 -0.568848,-0.2344 -0.202636,-0.2368 -0.202636,-0.6445 0,-0.293 0.09033,-0.4883 0.09033,-0.1977 0.275879,-0.3003 0.185546,-0.1025 0.405273,-0.1025 0.57373,0 0.67627,0.5347 l -0.278321,0.044 q -0.08057,-0.3418 -0.385742,-0.3418 -0.488281,0 -0.488281,0.647 0,0.6494 0.471191,0.6494 0.366211,0 0.427246,-0.4224 z"
         style="font-style:normal;font-variant:normal;font-weight:normal;font-stretch:normal;font-size:5px;line-height:125%;font-family:BrowalliaUPC;-inkscape-font-specification:'BrowalliaUPC, Normal';text-align:start;writing-mode:lr-tb;text-anchor:start"
         id="path4292"
         inkscape:connector-curvature="0" />
      <path
         d="m 56.097269,1043.6532 0.0415,0.2539 q -0.12207,0.024 -0.217285,0.024 -0.134278,0 -0.22461,-0.039 -0.08789,-0.041 -0.131836,-0.1221 -0.0415,-0.081 -0.0415,-0.3565 l 0,-0.9741 -0.209961,0 0,-0.2221 0.209961,0 0,-0.42 0.285644,-0.1709 0,0.5909 0.288086,0 0,0.2221 -0.288086,0 0,0.9912 q 0,0.1148 0.01465,0.1563 0.01465,0.039 0.05127,0.059 0.03662,0.017 0.09521,0.017 0.04883,0 0.126953,-0.01 z"
         style="font-style:normal;font-variant:normal;font-weight:normal;font-stretch:normal;font-size:5px;line-height:125%;font-family:BrowalliaUPC;-inkscape-font-specification:'BrowalliaUPC, Normal';text-align:start;writing-mode:lr-tb;text-anchor:start"
         id="path4294"
         inkscape:connector-curvature="0" />
      <path
         d="m 56.163187,1043.9486 0.67627,-2.4145 0.229492,0 -0.673828,2.4145 -0.231934,0 z"
         style="font-style:normal;font-variant:normal;font-weight:normal;font-stretch:normal;font-size:5px;line-height:125%;font-family:BrowalliaUPC;-inkscape-font-specification:'BrowalliaUPC, Normal';text-align:start;writing-mode:lr-tb;text-anchor:start"
         id="path4296"
         inkscape:connector-curvature="0" />
      <path
         d="m 57.647562,1042.6425 q -0.349121,-0.1294 -0.349121,-0.4761 0,-0.1587 0.0708,-0.2881 0.0708,-0.1318 0.224609,-0.2222 0.153809,-0.093 0.375977,-0.093 0.183105,0 0.334472,0.071 0.153809,0.071 0.249024,0.2099 0.09521,0.1392 0.09521,0.3296 0,0.3394 -0.344239,0.4688 0.439453,0.144 0.439453,0.5981 0,0.3125 -0.217285,0.5103 -0.217285,0.1977 -0.554199,0.1977 -0.336914,0 -0.554199,-0.1977 -0.214844,-0.2002 -0.214844,-0.5176 0,-0.4737 0.444336,-0.5908 z m -0.05615,-0.4859 q 0,0.1685 0.107422,0.2735 0.107421,0.1025 0.275878,0.1025 0.161133,0 0.268555,-0.1001 0.109863,-0.1025 0.109863,-0.2612 0,-0.095 -0.04395,-0.1758 -0.0415,-0.083 -0.129394,-0.1392 -0.08789,-0.056 -0.20752,-0.056 -0.109863,0 -0.197754,0.049 -0.08545,0.049 -0.134277,0.127 -0.04883,0.078 -0.04883,0.1806 z m -0.09277,1.0791 q 0,0.2246 0.13916,0.3516 0.141602,0.1269 0.339356,0.1269 0.205078,0 0.339355,-0.1318 0.134278,-0.1318 0.134278,-0.3369 0,-0.1392 -0.06348,-0.2466 -0.06103,-0.1074 -0.170898,-0.1685 -0.107422,-0.063 -0.249024,-0.063 -0.124511,0 -0.227051,0.054 -0.102539,0.051 -0.173339,0.1587 -0.06836,0.1074 -0.06836,0.2563 z"
         style="font-style:normal;font-variant:normal;font-weight:normal;font-stretch:normal;font-size:5px;line-height:125%;font-family:BrowalliaUPC;-inkscape-font-specification:'BrowalliaUPC, Normal';text-align:start;writing-mode:lr-tb;text-anchor:start"
         id="path4298"
         inkscape:connector-curvature="0" />
      <path
         d="m 59.022074,1043.2968 0.302734,-0.024 q 0.06592,0.4419 0.449219,0.4419 0.129394,0 0.234375,-0.059 0.10498,-0.061 0.180664,-0.1928 0.07813,-0.1319 0.07813,-0.3199 0,-0.2392 -0.134277,-0.3833 -0.131836,-0.1464 -0.36377,-0.1464 -0.280762,0 -0.424805,0.227 l -0.270996,-0.034 0.227051,-1.2011 1.162109,0 0,0.2734 -0.932617,0 -0.124511,0.6299 q 0.20996,-0.1489 0.439453,-0.1489 0.214843,0 0.375976,0.1001 0.163574,0.098 0.256348,0.2685 0.09522,0.1685 0.09522,0.3906 0,0.2442 -0.109864,0.437 -0.109863,0.1905 -0.283203,0.293 -0.17334,0.1001 -0.405273,0.1001 -0.314942,0 -0.517578,-0.1733 -0.202637,-0.1758 -0.234375,-0.4785 z"
         style="font-style:normal;font-variant:normal;font-weight:normal;font-stretch:normal;font-size:5px;line-height:125%;font-family:BrowalliaUPC;-inkscape-font-specification:'BrowalliaUPC, Normal';text-align:start;writing-mode:lr-tb;text-anchor:start"
         id="path4300"
         inkscape:connector-curvature="0" />
      <path
         d="m 61.75889,1043.9095 0,-0.559 -1.013183,0 0,-0.2637 1.066894,-1.5137 0.234375,0 0,1.5137 0.314941,0 0,0.2637 -0.314941,0 0,0.559 -0.288086,0 z m 0,-0.8227 0,-1.0523 -0.72998,1.0523 0.72998,0 z"
         style="font-style:normal;font-variant:normal;font-weight:normal;font-stretch:normal;font-size:5px;line-height:125%;font-family:BrowalliaUPC;-inkscape-font-specification:'BrowalliaUPC, Normal';text-align:start;writing-mode:lr-tb;text-anchor:start"
         id="path4302"
         inkscape:connector-curvature="0" />
      <path
         d="m 62.654886,1043.2968 0.302735,-0.024 q 0.06592,0.4419 0.449218,0.4419 0.129395,0 0.234375,-0.059 0.104981,-0.061 0.180664,-0.1928 0.07813,-0.1319 0.07813,-0.3199 0,-0.2392 -0.134277,-0.3833 -0.131836,-0.1464 -0.363769,-0.1464 -0.280762,0 -0.424805,0.227 l -0.270996,-0.034 0.227051,-1.2011 1.162109,0 0,0.2734 -0.932617,0 -0.124512,0.6299 q 0.209961,-0.1489 0.439453,-0.1489 0.214844,0 0.375977,0.1001 0.163574,0.098 0.256347,0.2685 0.09521,0.1685 0.09521,0.3906 0,0.2442 -0.109863,0.437 -0.109863,0.1905 -0.283203,0.293 -0.17334,0.1001 -0.405274,0.1001 -0.314941,0 -0.517578,-0.1733 -0.202636,-0.1758 -0.234375,-0.4785 z"
         style="font-style:normal;font-variant:normal;font-weight:normal;font-stretch:normal;font-size:5px;line-height:125%;font-family:BrowalliaUPC;-inkscape-font-specification:'BrowalliaUPC, Normal';text-align:start;writing-mode:lr-tb;text-anchor:start"
         id="path4304"
         inkscape:connector-curvature="0" />
    </g>
    <rect
       id="rect3455"
       width="70.35714"
       height="43.214287"
       x="0.81889039"
       y="1008.3072"
       style="fill:none;fill-opacity:1;stroke:#000000;stroke-linejoin:round;stroke-opacity:1"
       ry="4.8214288" />
    <text
       xml:space="preserve"
       style="font-style:normal;font-weight:normal;font-size:12.5px;line-height:125%;font-family:sans-serif;letter-spacing:0px;word-spacing:0px;fill:#000000;fill-opacity:1;stroke:none;stroke-width:1px;stroke-linecap:butt;stroke-linejoin:miter;stroke-opacity:1"
       x="4.1037445"
       y="1027.1715"
       id="text4381"
       sodipodi:linespacing="125%"><tspan
         sodipodi:role="line"
         id="tspan4383"
         x="4.1037445"
         y="1027.1715"
         style="font-style:normal;font-variant:normal;font-weight:normal;font-stretch:normal;font-size:12.5px;font-family:BrowalliaUPC;-inkscape-font-specification:BrowalliaUPC">USB Sound Card</tspan></text>
  </g>
</svg>
