G04 #@! TF.FileFunction,Legend,Top*
%FSLAX46Y46*%
G04 Gerber Fmt 4.6, Leading zero omitted, Abs format (unit mm)*
G04 Created by KiCad (PCBNEW 4.0.0-rc2-stable) date 11/27/2015 10:33:43 PM*
%MOMM*%
G01*
G04 APERTURE LIST*
%ADD10C,0.100000*%
%ADD11C,0.300000*%
%ADD12C,0.150000*%
%ADD13R,1.600000X1.150000*%
%ADD14R,1.150000X1.600000*%
%ADD15R,2.000200X3.000960*%
%ADD16R,3.399740X2.000200*%
%ADD17R,1.950000X1.900000*%
%ADD18O,1.950000X1.300000*%
%ADD19O,1.350000X1.650000*%
%ADD20R,1.750000X0.800000*%
%ADD21R,2.400000X12.400000*%
%ADD22R,1.600000X1.300000*%
%ADD23R,1.300000X1.600000*%
%ADD24R,2.000000X0.950000*%
%ADD25R,0.950000X2.000000*%
%ADD26R,2.432000X2.432000*%
%ADD27O,2.432000X2.432000*%
%ADD28R,1.800000X1.600000*%
G04 APERTURE END LIST*
D10*
D11*
X104437714Y-76600929D02*
X105152000Y-76600929D01*
X105152000Y-78100929D01*
X105302786Y-101199071D02*
X104802786Y-100484786D01*
X104445643Y-101199071D02*
X104445643Y-99699071D01*
X105017071Y-99699071D01*
X105159929Y-99770500D01*
X105231357Y-99841929D01*
X105302786Y-99984786D01*
X105302786Y-100199071D01*
X105231357Y-100341929D01*
X105159929Y-100413357D01*
X105017071Y-100484786D01*
X104445643Y-100484786D01*
D12*
X114140500Y-99920500D02*
X114840500Y-99920500D01*
X114840500Y-101120500D02*
X114140500Y-101120500D01*
X118011500Y-97821000D02*
X118011500Y-98521000D01*
X116811500Y-98521000D02*
X116811500Y-97821000D01*
X112938000Y-82074500D02*
X112938000Y-81374500D01*
X114138000Y-81374500D02*
X114138000Y-82074500D01*
X115287500Y-82074500D02*
X115287500Y-81374500D01*
X116487500Y-81374500D02*
X116487500Y-82074500D01*
X105631500Y-89252500D02*
X106331500Y-89252500D01*
X106331500Y-90452500D02*
X105631500Y-90452500D01*
X106781600Y-84074000D02*
X106781600Y-84836000D01*
X106400600Y-84455000D02*
X107162600Y-84455000D01*
X109067600Y-84201000D02*
X109067600Y-88011000D01*
X105257600Y-83439000D02*
X108305600Y-83439000D01*
X109067600Y-84201000D02*
X108305600Y-83439000D01*
X104495600Y-84201000D02*
X104495600Y-88011000D01*
X104495600Y-84201000D02*
X105257600Y-83439000D01*
X106908600Y-87757000D02*
X106654600Y-87757000D01*
X106146600Y-87630000D02*
X107416600Y-87630000D01*
X107670600Y-87503000D02*
X105892600Y-87503000D01*
X107924600Y-87376000D02*
X105638600Y-87376000D01*
X105511600Y-87249000D02*
X108051600Y-87249000D01*
X108178600Y-87122000D02*
X105384600Y-87122000D01*
X105257600Y-86995000D02*
X108305600Y-86995000D01*
X105130600Y-86868000D02*
X108432600Y-86868000D01*
X104495600Y-88011000D02*
X109067600Y-88011000D01*
X108813600Y-85725000D02*
G75*
G03X108813600Y-85725000I-2032000J0D01*
G01*
X122460500Y-82832500D02*
X121760500Y-82832500D01*
X121760500Y-81632500D02*
X122460500Y-81632500D01*
X120424500Y-97821000D02*
X120424500Y-98521000D01*
X119224500Y-98521000D02*
X119224500Y-97821000D01*
X105958640Y-97917000D02*
X105958640Y-99314000D01*
X106085640Y-97663000D02*
X106085640Y-99441000D01*
X106212640Y-97282000D02*
X106212640Y-99822000D01*
X106339640Y-99949000D02*
X106339640Y-97155000D01*
X106466640Y-97028000D02*
X106466640Y-100076000D01*
X106593640Y-100203000D02*
X106593640Y-96901000D01*
X106720640Y-96774000D02*
X106720640Y-100330000D01*
X105577640Y-95885000D02*
X110149640Y-95885000D01*
X110149640Y-95885000D02*
X110911640Y-96647000D01*
X110911640Y-96647000D02*
X110911640Y-100457000D01*
X110911640Y-100457000D02*
X110149640Y-101219000D01*
X110149640Y-101219000D02*
X105577640Y-101219000D01*
X105577640Y-101219000D02*
X105577640Y-95885000D01*
X110403640Y-98552000D02*
X109641640Y-98552000D01*
X110022640Y-98171000D02*
X110022640Y-98933000D01*
X110657640Y-98552000D02*
G75*
G03X110657640Y-98552000I-2413000J0D01*
G01*
X105877360Y-78740000D02*
X105877360Y-80137000D01*
X106004360Y-78486000D02*
X106004360Y-80264000D01*
X106131360Y-78105000D02*
X106131360Y-80645000D01*
X106258360Y-80772000D02*
X106258360Y-77978000D01*
X106385360Y-77851000D02*
X106385360Y-80899000D01*
X106512360Y-81026000D02*
X106512360Y-77724000D01*
X106639360Y-77597000D02*
X106639360Y-81153000D01*
X105496360Y-76708000D02*
X110068360Y-76708000D01*
X110068360Y-76708000D02*
X110830360Y-77470000D01*
X110830360Y-77470000D02*
X110830360Y-81280000D01*
X110830360Y-81280000D02*
X110068360Y-82042000D01*
X110068360Y-82042000D02*
X105496360Y-82042000D01*
X105496360Y-82042000D02*
X105496360Y-76708000D01*
X110322360Y-79375000D02*
X109560360Y-79375000D01*
X109941360Y-78994000D02*
X109941360Y-79756000D01*
X110576360Y-79375000D02*
G75*
G03X110576360Y-79375000I-2413000J0D01*
G01*
X109760500Y-95405500D02*
X109060500Y-95405500D01*
X109060500Y-94205500D02*
X109760500Y-94205500D01*
X119093500Y-78267000D02*
X119793500Y-78267000D01*
X119793500Y-79467000D02*
X119093500Y-79467000D01*
X113800000Y-94321000D02*
X114800000Y-94321000D01*
X114800000Y-95671000D02*
X113800000Y-95671000D01*
X122610500Y-84876000D02*
X121610500Y-84876000D01*
X121610500Y-83526000D02*
X122610500Y-83526000D01*
X120229000Y-91770000D02*
X120229000Y-90770000D01*
X121579000Y-90770000D02*
X121579000Y-91770000D01*
X121579000Y-86665000D02*
X121579000Y-87665000D01*
X120229000Y-87665000D02*
X120229000Y-86665000D01*
X109196500Y-91511500D02*
X109196500Y-92511500D01*
X107846500Y-92511500D02*
X107846500Y-91511500D01*
X118308500Y-76541000D02*
X119308500Y-76541000D01*
X119308500Y-77891000D02*
X118308500Y-77891000D01*
X107418500Y-93035500D02*
X107418500Y-94035500D01*
X106068500Y-94035500D02*
X106068500Y-93035500D01*
X115181000Y-79478500D02*
X114181000Y-79478500D01*
X114181000Y-78128500D02*
X115181000Y-78128500D01*
X105767500Y-93035500D02*
X105767500Y-94035500D01*
X104417500Y-94035500D02*
X104417500Y-93035500D01*
X115181000Y-77891000D02*
X114181000Y-77891000D01*
X114181000Y-76541000D02*
X115181000Y-76541000D01*
X119288000Y-96052000D02*
X118288000Y-96052000D01*
X118288000Y-94702000D02*
X119288000Y-94702000D01*
X111056000Y-85275000D02*
X111056000Y-85600000D01*
X118306000Y-85275000D02*
X118306000Y-85600000D01*
X118306000Y-92525000D02*
X118306000Y-92200000D01*
X111056000Y-92525000D02*
X111056000Y-92200000D01*
X111056000Y-85275000D02*
X111381000Y-85275000D01*
X111056000Y-92525000D02*
X111381000Y-92525000D01*
X118306000Y-92525000D02*
X117981000Y-92525000D01*
X118306000Y-85275000D02*
X117981000Y-85275000D01*
X111056000Y-85600000D02*
X109631000Y-85600000D01*
X125857000Y-97980500D02*
X125857000Y-100520500D01*
X126137000Y-95160500D02*
X126137000Y-96710500D01*
X125857000Y-97980500D02*
X123317000Y-97980500D01*
X123037000Y-96710500D02*
X123037000Y-95160500D01*
X123037000Y-95160500D02*
X126137000Y-95160500D01*
X123317000Y-97980500D02*
X123317000Y-100520500D01*
X123317000Y-100520500D02*
X125857000Y-100520500D01*
X112227000Y-99590000D02*
X112227000Y-95990000D01*
X116627000Y-99590000D02*
X112227000Y-99590000D01*
X116627000Y-95990000D02*
X116627000Y-99590000D01*
X112227000Y-95990000D02*
X116627000Y-95990000D01*
X116988400Y-100700666D02*
X117021733Y-100734000D01*
X117055067Y-100834000D01*
X117055067Y-100900666D01*
X117021733Y-101000666D01*
X116955067Y-101067333D01*
X116888400Y-101100666D01*
X116755067Y-101134000D01*
X116655067Y-101134000D01*
X116521733Y-101100666D01*
X116455067Y-101067333D01*
X116388400Y-101000666D01*
X116355067Y-100900666D01*
X116355067Y-100834000D01*
X116388400Y-100734000D01*
X116421733Y-100700666D01*
X117055067Y-100034000D02*
X117055067Y-100434000D01*
X117055067Y-100234000D02*
X116355067Y-100234000D01*
X116455067Y-100300666D01*
X116521733Y-100367333D01*
X116555067Y-100434000D01*
X118868000Y-99557666D02*
X118901333Y-99591000D01*
X118934667Y-99691000D01*
X118934667Y-99757666D01*
X118901333Y-99857666D01*
X118834667Y-99924333D01*
X118768000Y-99957666D01*
X118634667Y-99991000D01*
X118534667Y-99991000D01*
X118401333Y-99957666D01*
X118334667Y-99924333D01*
X118268000Y-99857666D01*
X118234667Y-99757666D01*
X118234667Y-99691000D01*
X118268000Y-99591000D01*
X118301333Y-99557666D01*
X118301333Y-99291000D02*
X118268000Y-99257666D01*
X118234667Y-99191000D01*
X118234667Y-99024333D01*
X118268000Y-98957666D01*
X118301333Y-98924333D01*
X118368000Y-98891000D01*
X118434667Y-98891000D01*
X118534667Y-98924333D01*
X118934667Y-99324333D01*
X118934667Y-98891000D01*
X112391000Y-82918166D02*
X112424333Y-82951500D01*
X112457667Y-83051500D01*
X112457667Y-83118166D01*
X112424333Y-83218166D01*
X112357667Y-83284833D01*
X112291000Y-83318166D01*
X112157667Y-83351500D01*
X112057667Y-83351500D01*
X111924333Y-83318166D01*
X111857667Y-83284833D01*
X111791000Y-83218166D01*
X111757667Y-83118166D01*
X111757667Y-83051500D01*
X111791000Y-82951500D01*
X111824333Y-82918166D01*
X111757667Y-82684833D02*
X111757667Y-82251500D01*
X112024333Y-82484833D01*
X112024333Y-82384833D01*
X112057667Y-82318166D01*
X112091000Y-82284833D01*
X112157667Y-82251500D01*
X112324333Y-82251500D01*
X112391000Y-82284833D01*
X112424333Y-82318166D01*
X112457667Y-82384833D01*
X112457667Y-82584833D01*
X112424333Y-82651500D01*
X112391000Y-82684833D01*
X117344000Y-82920666D02*
X117377333Y-82954000D01*
X117410667Y-83054000D01*
X117410667Y-83120666D01*
X117377333Y-83220666D01*
X117310667Y-83287333D01*
X117244000Y-83320666D01*
X117110667Y-83354000D01*
X117010667Y-83354000D01*
X116877333Y-83320666D01*
X116810667Y-83287333D01*
X116744000Y-83220666D01*
X116710667Y-83120666D01*
X116710667Y-83054000D01*
X116744000Y-82954000D01*
X116777333Y-82920666D01*
X116944000Y-82320666D02*
X117410667Y-82320666D01*
X116677333Y-82487333D02*
X117177333Y-82654000D01*
X117177333Y-82220666D01*
X104734534Y-88946800D02*
X104701200Y-88980133D01*
X104601200Y-89013467D01*
X104534534Y-89013467D01*
X104434534Y-88980133D01*
X104367867Y-88913467D01*
X104334534Y-88846800D01*
X104301200Y-88713467D01*
X104301200Y-88613467D01*
X104334534Y-88480133D01*
X104367867Y-88413467D01*
X104434534Y-88346800D01*
X104534534Y-88313467D01*
X104601200Y-88313467D01*
X104701200Y-88346800D01*
X104734534Y-88380133D01*
X105367867Y-88313467D02*
X105034534Y-88313467D01*
X105001200Y-88646800D01*
X105034534Y-88613467D01*
X105101200Y-88580133D01*
X105267867Y-88580133D01*
X105334534Y-88613467D01*
X105367867Y-88646800D01*
X105401200Y-88713467D01*
X105401200Y-88880133D01*
X105367867Y-88946800D01*
X105334534Y-88980133D01*
X105267867Y-89013467D01*
X105101200Y-89013467D01*
X105034534Y-88980133D01*
X105001200Y-88946800D01*
X108341334Y-83181000D02*
X108308000Y-83214333D01*
X108208000Y-83247667D01*
X108141334Y-83247667D01*
X108041334Y-83214333D01*
X107974667Y-83147667D01*
X107941334Y-83081000D01*
X107908000Y-82947667D01*
X107908000Y-82847667D01*
X107941334Y-82714333D01*
X107974667Y-82647667D01*
X108041334Y-82581000D01*
X108141334Y-82547667D01*
X108208000Y-82547667D01*
X108308000Y-82581000D01*
X108341334Y-82614333D01*
X108941334Y-82547667D02*
X108808000Y-82547667D01*
X108741334Y-82581000D01*
X108708000Y-82614333D01*
X108641334Y-82714333D01*
X108608000Y-82847667D01*
X108608000Y-83114333D01*
X108641334Y-83181000D01*
X108674667Y-83214333D01*
X108741334Y-83247667D01*
X108874667Y-83247667D01*
X108941334Y-83214333D01*
X108974667Y-83181000D01*
X109008000Y-83114333D01*
X109008000Y-82947667D01*
X108974667Y-82881000D01*
X108941334Y-82847667D01*
X108874667Y-82814333D01*
X108741334Y-82814333D01*
X108674667Y-82847667D01*
X108641334Y-82881000D01*
X108608000Y-82947667D01*
X123327334Y-81276000D02*
X123294000Y-81309333D01*
X123194000Y-81342667D01*
X123127334Y-81342667D01*
X123027334Y-81309333D01*
X122960667Y-81242667D01*
X122927334Y-81176000D01*
X122894000Y-81042667D01*
X122894000Y-80942667D01*
X122927334Y-80809333D01*
X122960667Y-80742667D01*
X123027334Y-80676000D01*
X123127334Y-80642667D01*
X123194000Y-80642667D01*
X123294000Y-80676000D01*
X123327334Y-80709333D01*
X123560667Y-80642667D02*
X124027334Y-80642667D01*
X123727334Y-81342667D01*
X121408000Y-99557666D02*
X121441333Y-99591000D01*
X121474667Y-99691000D01*
X121474667Y-99757666D01*
X121441333Y-99857666D01*
X121374667Y-99924333D01*
X121308000Y-99957666D01*
X121174667Y-99991000D01*
X121074667Y-99991000D01*
X120941333Y-99957666D01*
X120874667Y-99924333D01*
X120808000Y-99857666D01*
X120774667Y-99757666D01*
X120774667Y-99691000D01*
X120808000Y-99591000D01*
X120841333Y-99557666D01*
X121074667Y-99157666D02*
X121041333Y-99224333D01*
X121008000Y-99257666D01*
X120941333Y-99291000D01*
X120908000Y-99291000D01*
X120841333Y-99257666D01*
X120808000Y-99224333D01*
X120774667Y-99157666D01*
X120774667Y-99024333D01*
X120808000Y-98957666D01*
X120841333Y-98924333D01*
X120908000Y-98891000D01*
X120941333Y-98891000D01*
X121008000Y-98924333D01*
X121041333Y-98957666D01*
X121074667Y-99024333D01*
X121074667Y-99157666D01*
X121108000Y-99224333D01*
X121141333Y-99257666D01*
X121208000Y-99291000D01*
X121341333Y-99291000D01*
X121408000Y-99257666D01*
X121441333Y-99224333D01*
X121474667Y-99157666D01*
X121474667Y-99024333D01*
X121441333Y-98957666D01*
X121408000Y-98924333D01*
X121341333Y-98891000D01*
X121208000Y-98891000D01*
X121141333Y-98924333D01*
X121108000Y-98957666D01*
X121074667Y-99024333D01*
X105279000Y-96509666D02*
X105312333Y-96543000D01*
X105345667Y-96643000D01*
X105345667Y-96709666D01*
X105312333Y-96809666D01*
X105245667Y-96876333D01*
X105179000Y-96909666D01*
X105045667Y-96943000D01*
X104945667Y-96943000D01*
X104812333Y-96909666D01*
X104745667Y-96876333D01*
X104679000Y-96809666D01*
X104645667Y-96709666D01*
X104645667Y-96643000D01*
X104679000Y-96543000D01*
X104712333Y-96509666D01*
X105345667Y-96176333D02*
X105345667Y-96043000D01*
X105312333Y-95976333D01*
X105279000Y-95943000D01*
X105179000Y-95876333D01*
X105045667Y-95843000D01*
X104779000Y-95843000D01*
X104712333Y-95876333D01*
X104679000Y-95909666D01*
X104645667Y-95976333D01*
X104645667Y-96109666D01*
X104679000Y-96176333D01*
X104712333Y-96209666D01*
X104779000Y-96243000D01*
X104945667Y-96243000D01*
X105012333Y-96209666D01*
X105045667Y-96176333D01*
X105079000Y-96109666D01*
X105079000Y-95976333D01*
X105045667Y-95909666D01*
X105012333Y-95876333D01*
X104945667Y-95843000D01*
X105152000Y-81857000D02*
X105185333Y-81890334D01*
X105218667Y-81990334D01*
X105218667Y-82057000D01*
X105185333Y-82157000D01*
X105118667Y-82223667D01*
X105052000Y-82257000D01*
X104918667Y-82290334D01*
X104818667Y-82290334D01*
X104685333Y-82257000D01*
X104618667Y-82223667D01*
X104552000Y-82157000D01*
X104518667Y-82057000D01*
X104518667Y-81990334D01*
X104552000Y-81890334D01*
X104585333Y-81857000D01*
X105218667Y-81190334D02*
X105218667Y-81590334D01*
X105218667Y-81390334D02*
X104518667Y-81390334D01*
X104618667Y-81457000D01*
X104685333Y-81523667D01*
X104718667Y-81590334D01*
X104518667Y-80757000D02*
X104518667Y-80690333D01*
X104552000Y-80623667D01*
X104585333Y-80590333D01*
X104652000Y-80557000D01*
X104785333Y-80523667D01*
X104952000Y-80523667D01*
X105085333Y-80557000D01*
X105152000Y-80590333D01*
X105185333Y-80623667D01*
X105218667Y-80690333D01*
X105218667Y-80757000D01*
X105185333Y-80823667D01*
X105152000Y-80857000D01*
X105085333Y-80890333D01*
X104952000Y-80923667D01*
X104785333Y-80923667D01*
X104652000Y-80890333D01*
X104585333Y-80857000D01*
X104552000Y-80823667D01*
X104518667Y-80757000D01*
X109938400Y-93925200D02*
X109905066Y-93958533D01*
X109805066Y-93991867D01*
X109738400Y-93991867D01*
X109638400Y-93958533D01*
X109571733Y-93891867D01*
X109538400Y-93825200D01*
X109505066Y-93691867D01*
X109505066Y-93591867D01*
X109538400Y-93458533D01*
X109571733Y-93391867D01*
X109638400Y-93325200D01*
X109738400Y-93291867D01*
X109805066Y-93291867D01*
X109905066Y-93325200D01*
X109938400Y-93358533D01*
X110605066Y-93991867D02*
X110205066Y-93991867D01*
X110405066Y-93991867D02*
X110405066Y-93291867D01*
X110338400Y-93391867D01*
X110271733Y-93458533D01*
X110205066Y-93491867D01*
X111271733Y-93991867D02*
X110871733Y-93991867D01*
X111071733Y-93991867D02*
X111071733Y-93291867D01*
X111005067Y-93391867D01*
X110938400Y-93458533D01*
X110871733Y-93491867D01*
X122043000Y-79367800D02*
X122076333Y-79401134D01*
X122109667Y-79501134D01*
X122109667Y-79567800D01*
X122076333Y-79667800D01*
X122009667Y-79734467D01*
X121943000Y-79767800D01*
X121809667Y-79801134D01*
X121709667Y-79801134D01*
X121576333Y-79767800D01*
X121509667Y-79734467D01*
X121443000Y-79667800D01*
X121409667Y-79567800D01*
X121409667Y-79501134D01*
X121443000Y-79401134D01*
X121476333Y-79367800D01*
X122109667Y-78701134D02*
X122109667Y-79101134D01*
X122109667Y-78901134D02*
X121409667Y-78901134D01*
X121509667Y-78967800D01*
X121576333Y-79034467D01*
X121609667Y-79101134D01*
X121476333Y-78434467D02*
X121443000Y-78401133D01*
X121409667Y-78334467D01*
X121409667Y-78167800D01*
X121443000Y-78101133D01*
X121476333Y-78067800D01*
X121543000Y-78034467D01*
X121609667Y-78034467D01*
X121709667Y-78067800D01*
X122109667Y-78467800D01*
X122109667Y-78034467D01*
X124959334Y-94042667D02*
X124959334Y-93342667D01*
X125226000Y-93342667D01*
X125292667Y-93376000D01*
X125326000Y-93409333D01*
X125359334Y-93476000D01*
X125359334Y-93576000D01*
X125326000Y-93642667D01*
X125292667Y-93676000D01*
X125226000Y-93709333D01*
X124959334Y-93709333D01*
X126026000Y-94042667D02*
X125626000Y-94042667D01*
X125826000Y-94042667D02*
X125826000Y-93342667D01*
X125759334Y-93442667D01*
X125692667Y-93509333D01*
X125626000Y-93542667D01*
X112178267Y-94985666D02*
X111844933Y-95219000D01*
X112178267Y-95385666D02*
X111478267Y-95385666D01*
X111478267Y-95119000D01*
X111511600Y-95052333D01*
X111544933Y-95019000D01*
X111611600Y-94985666D01*
X111711600Y-94985666D01*
X111778267Y-95019000D01*
X111811600Y-95052333D01*
X111844933Y-95119000D01*
X111844933Y-95385666D01*
X112178267Y-94319000D02*
X112178267Y-94719000D01*
X112178267Y-94519000D02*
X111478267Y-94519000D01*
X111578267Y-94585666D01*
X111644933Y-94652333D01*
X111678267Y-94719000D01*
X124927534Y-84263667D02*
X124694200Y-83930333D01*
X124527534Y-84263667D02*
X124527534Y-83563667D01*
X124794200Y-83563667D01*
X124860867Y-83597000D01*
X124894200Y-83630333D01*
X124927534Y-83697000D01*
X124927534Y-83797000D01*
X124894200Y-83863667D01*
X124860867Y-83897000D01*
X124794200Y-83930333D01*
X124527534Y-83930333D01*
X125194200Y-83630333D02*
X125227534Y-83597000D01*
X125294200Y-83563667D01*
X125460867Y-83563667D01*
X125527534Y-83597000D01*
X125560867Y-83630333D01*
X125594200Y-83697000D01*
X125594200Y-83763667D01*
X125560867Y-83863667D01*
X125160867Y-84263667D01*
X125594200Y-84263667D01*
X120660334Y-94169667D02*
X120427000Y-93836333D01*
X120260334Y-94169667D02*
X120260334Y-93469667D01*
X120527000Y-93469667D01*
X120593667Y-93503000D01*
X120627000Y-93536333D01*
X120660334Y-93603000D01*
X120660334Y-93703000D01*
X120627000Y-93769667D01*
X120593667Y-93803000D01*
X120527000Y-93836333D01*
X120260334Y-93836333D01*
X120893667Y-93469667D02*
X121327000Y-93469667D01*
X121093667Y-93736333D01*
X121193667Y-93736333D01*
X121260334Y-93769667D01*
X121293667Y-93803000D01*
X121327000Y-93869667D01*
X121327000Y-94036333D01*
X121293667Y-94103000D01*
X121260334Y-94136333D01*
X121193667Y-94169667D01*
X120993667Y-94169667D01*
X120927000Y-94136333D01*
X120893667Y-94103000D01*
X119696667Y-85079666D02*
X119363333Y-85313000D01*
X119696667Y-85479666D02*
X118996667Y-85479666D01*
X118996667Y-85213000D01*
X119030000Y-85146333D01*
X119063333Y-85113000D01*
X119130000Y-85079666D01*
X119230000Y-85079666D01*
X119296667Y-85113000D01*
X119330000Y-85146333D01*
X119363333Y-85213000D01*
X119363333Y-85479666D01*
X119230000Y-84479666D02*
X119696667Y-84479666D01*
X118963333Y-84646333D02*
X119463333Y-84813000D01*
X119463333Y-84379666D01*
X108468334Y-89927867D02*
X108235000Y-89594533D01*
X108068334Y-89927867D02*
X108068334Y-89227867D01*
X108335000Y-89227867D01*
X108401667Y-89261200D01*
X108435000Y-89294533D01*
X108468334Y-89361200D01*
X108468334Y-89461200D01*
X108435000Y-89527867D01*
X108401667Y-89561200D01*
X108335000Y-89594533D01*
X108068334Y-89594533D01*
X109101667Y-89227867D02*
X108768334Y-89227867D01*
X108735000Y-89561200D01*
X108768334Y-89527867D01*
X108835000Y-89494533D01*
X109001667Y-89494533D01*
X109068334Y-89527867D01*
X109101667Y-89561200D01*
X109135000Y-89627867D01*
X109135000Y-89794533D01*
X109101667Y-89861200D01*
X109068334Y-89894533D01*
X109001667Y-89927867D01*
X108835000Y-89927867D01*
X108768334Y-89894533D01*
X108735000Y-89861200D01*
X121728667Y-77332666D02*
X121395333Y-77566000D01*
X121728667Y-77732666D02*
X121028667Y-77732666D01*
X121028667Y-77466000D01*
X121062000Y-77399333D01*
X121095333Y-77366000D01*
X121162000Y-77332666D01*
X121262000Y-77332666D01*
X121328667Y-77366000D01*
X121362000Y-77399333D01*
X121395333Y-77466000D01*
X121395333Y-77732666D01*
X121028667Y-76732666D02*
X121028667Y-76866000D01*
X121062000Y-76932666D01*
X121095333Y-76966000D01*
X121195333Y-77032666D01*
X121328667Y-77066000D01*
X121595333Y-77066000D01*
X121662000Y-77032666D01*
X121695333Y-76999333D01*
X121728667Y-76932666D01*
X121728667Y-76799333D01*
X121695333Y-76732666D01*
X121662000Y-76699333D01*
X121595333Y-76666000D01*
X121428667Y-76666000D01*
X121362000Y-76699333D01*
X121328667Y-76732666D01*
X121295333Y-76799333D01*
X121295333Y-76932666D01*
X121328667Y-76999333D01*
X121362000Y-77032666D01*
X121428667Y-77066000D01*
X106537934Y-91426467D02*
X106304600Y-91093133D01*
X106137934Y-91426467D02*
X106137934Y-90726467D01*
X106404600Y-90726467D01*
X106471267Y-90759800D01*
X106504600Y-90793133D01*
X106537934Y-90859800D01*
X106537934Y-90959800D01*
X106504600Y-91026467D01*
X106471267Y-91059800D01*
X106404600Y-91093133D01*
X106137934Y-91093133D01*
X106771267Y-90726467D02*
X107237934Y-90726467D01*
X106937934Y-91426467D01*
X111744934Y-78294667D02*
X111511600Y-77961333D01*
X111344934Y-78294667D02*
X111344934Y-77594667D01*
X111611600Y-77594667D01*
X111678267Y-77628000D01*
X111711600Y-77661333D01*
X111744934Y-77728000D01*
X111744934Y-77828000D01*
X111711600Y-77894667D01*
X111678267Y-77928000D01*
X111611600Y-77961333D01*
X111344934Y-77961333D01*
X112144934Y-77894667D02*
X112078267Y-77861333D01*
X112044934Y-77828000D01*
X112011600Y-77761333D01*
X112011600Y-77728000D01*
X112044934Y-77661333D01*
X112078267Y-77628000D01*
X112144934Y-77594667D01*
X112278267Y-77594667D01*
X112344934Y-77628000D01*
X112378267Y-77661333D01*
X112411600Y-77728000D01*
X112411600Y-77761333D01*
X112378267Y-77828000D01*
X112344934Y-77861333D01*
X112278267Y-77894667D01*
X112144934Y-77894667D01*
X112078267Y-77928000D01*
X112044934Y-77961333D01*
X112011600Y-78028000D01*
X112011600Y-78161333D01*
X112044934Y-78228000D01*
X112078267Y-78261333D01*
X112144934Y-78294667D01*
X112278267Y-78294667D01*
X112344934Y-78261333D01*
X112378267Y-78228000D01*
X112411600Y-78161333D01*
X112411600Y-78028000D01*
X112378267Y-77961333D01*
X112344934Y-77928000D01*
X112278267Y-77894667D01*
X104963134Y-91375667D02*
X104729800Y-91042333D01*
X104563134Y-91375667D02*
X104563134Y-90675667D01*
X104829800Y-90675667D01*
X104896467Y-90709000D01*
X104929800Y-90742333D01*
X104963134Y-90809000D01*
X104963134Y-90909000D01*
X104929800Y-90975667D01*
X104896467Y-91009000D01*
X104829800Y-91042333D01*
X104563134Y-91042333D01*
X105296467Y-91375667D02*
X105429800Y-91375667D01*
X105496467Y-91342333D01*
X105529800Y-91309000D01*
X105596467Y-91209000D01*
X105629800Y-91075667D01*
X105629800Y-90809000D01*
X105596467Y-90742333D01*
X105563134Y-90709000D01*
X105496467Y-90675667D01*
X105363134Y-90675667D01*
X105296467Y-90709000D01*
X105263134Y-90742333D01*
X105229800Y-90809000D01*
X105229800Y-90975667D01*
X105263134Y-91042333D01*
X105296467Y-91075667D01*
X105363134Y-91109000D01*
X105496467Y-91109000D01*
X105563134Y-91075667D01*
X105596467Y-91042333D01*
X105629800Y-90975667D01*
X111259200Y-77227867D02*
X111025866Y-76894533D01*
X110859200Y-77227867D02*
X110859200Y-76527867D01*
X111125866Y-76527867D01*
X111192533Y-76561200D01*
X111225866Y-76594533D01*
X111259200Y-76661200D01*
X111259200Y-76761200D01*
X111225866Y-76827867D01*
X111192533Y-76861200D01*
X111125866Y-76894533D01*
X110859200Y-76894533D01*
X111925866Y-77227867D02*
X111525866Y-77227867D01*
X111725866Y-77227867D02*
X111725866Y-76527867D01*
X111659200Y-76627867D01*
X111592533Y-76694533D01*
X111525866Y-76727867D01*
X112359200Y-76527867D02*
X112425867Y-76527867D01*
X112492533Y-76561200D01*
X112525867Y-76594533D01*
X112559200Y-76661200D01*
X112592533Y-76794533D01*
X112592533Y-76961200D01*
X112559200Y-77094533D01*
X112525867Y-77161200D01*
X112492533Y-77194533D01*
X112425867Y-77227867D01*
X112359200Y-77227867D01*
X112292533Y-77194533D01*
X112259200Y-77161200D01*
X112225867Y-77094533D01*
X112192533Y-76961200D01*
X112192533Y-76794533D01*
X112225867Y-76661200D01*
X112259200Y-76594533D01*
X112292533Y-76561200D01*
X112359200Y-76527867D01*
X121601667Y-95827000D02*
X121268333Y-96060334D01*
X121601667Y-96227000D02*
X120901667Y-96227000D01*
X120901667Y-95960334D01*
X120935000Y-95893667D01*
X120968333Y-95860334D01*
X121035000Y-95827000D01*
X121135000Y-95827000D01*
X121201667Y-95860334D01*
X121235000Y-95893667D01*
X121268333Y-95960334D01*
X121268333Y-96227000D01*
X121601667Y-95160334D02*
X121601667Y-95560334D01*
X121601667Y-95360334D02*
X120901667Y-95360334D01*
X121001667Y-95427000D01*
X121068333Y-95493667D01*
X121101667Y-95560334D01*
X121601667Y-94493667D02*
X121601667Y-94893667D01*
X121601667Y-94693667D02*
X120901667Y-94693667D01*
X121001667Y-94760333D01*
X121068333Y-94827000D01*
X121101667Y-94893667D01*
X109702667Y-84579667D02*
X109702667Y-85146333D01*
X109736000Y-85213000D01*
X109769333Y-85246333D01*
X109836000Y-85279667D01*
X109969333Y-85279667D01*
X110036000Y-85246333D01*
X110069333Y-85213000D01*
X110102667Y-85146333D01*
X110102667Y-84579667D01*
X110802666Y-85279667D02*
X110402666Y-85279667D01*
X110602666Y-85279667D02*
X110602666Y-84579667D01*
X110536000Y-84679667D01*
X110469333Y-84746333D01*
X110402666Y-84779667D01*
X122998667Y-100465666D02*
X122298667Y-100465666D01*
X122298667Y-100199000D01*
X122332000Y-100132333D01*
X122365333Y-100099000D01*
X122432000Y-100065666D01*
X122532000Y-100065666D01*
X122598667Y-100099000D01*
X122632000Y-100132333D01*
X122665333Y-100199000D01*
X122665333Y-100465666D01*
X122365333Y-99799000D02*
X122332000Y-99765666D01*
X122298667Y-99699000D01*
X122298667Y-99532333D01*
X122332000Y-99465666D01*
X122365333Y-99432333D01*
X122432000Y-99399000D01*
X122498667Y-99399000D01*
X122598667Y-99432333D01*
X122998667Y-99832333D01*
X122998667Y-99399000D01*
X111717933Y-96954933D02*
X112051267Y-96954933D01*
X111351267Y-97188266D02*
X111717933Y-96954933D01*
X111351267Y-96721600D01*
X112051267Y-96121600D02*
X112051267Y-96521600D01*
X112051267Y-96321600D02*
X111351267Y-96321600D01*
X111451267Y-96388266D01*
X111517933Y-96454933D01*
X111551267Y-96521600D01*
%LPC*%
D13*
X113540500Y-100520500D03*
X115440500Y-100520500D03*
D14*
X117411500Y-97221000D03*
X117411500Y-99121000D03*
X113538000Y-82674500D03*
X113538000Y-80774500D03*
X115887500Y-82674500D03*
X115887500Y-80774500D03*
D13*
X105031500Y-89852500D03*
X106931500Y-89852500D03*
D15*
X106781600Y-83924140D03*
X106781600Y-87525860D03*
D13*
X123060500Y-82232500D03*
X121160500Y-82232500D03*
D14*
X119824500Y-97221000D03*
X119824500Y-99121000D03*
D16*
X110444280Y-98552000D03*
X106045000Y-98552000D03*
X110363000Y-79375000D03*
X105963720Y-79375000D03*
D13*
X110360500Y-94805500D03*
X108460500Y-94805500D03*
X118493500Y-78867000D03*
X120393500Y-78867000D03*
D17*
X125476000Y-87900000D03*
X125476000Y-89900000D03*
D18*
X125476000Y-85400000D03*
X125476000Y-92400000D03*
D19*
X122776000Y-91400000D03*
X122776000Y-86400000D03*
D20*
X122776000Y-90200000D03*
X122776000Y-89550000D03*
X122776000Y-88900000D03*
X122776000Y-88250000D03*
X122776000Y-87600000D03*
D21*
X103013000Y-95123000D03*
X103013000Y-82677000D03*
D22*
X115400000Y-94996000D03*
X113200000Y-94996000D03*
X121010500Y-84201000D03*
X123210500Y-84201000D03*
D23*
X120904000Y-90170000D03*
X120904000Y-92370000D03*
X120904000Y-88265000D03*
X120904000Y-86065000D03*
X108521500Y-93111500D03*
X108521500Y-90911500D03*
D22*
X119908500Y-77216000D03*
X117708500Y-77216000D03*
D23*
X106743500Y-94635500D03*
X106743500Y-92435500D03*
D22*
X113581000Y-78803500D03*
X115781000Y-78803500D03*
D23*
X105092500Y-94635500D03*
X105092500Y-92435500D03*
D22*
X113581000Y-77216000D03*
X115781000Y-77216000D03*
X117688000Y-95377000D03*
X119888000Y-95377000D03*
D24*
X110431000Y-86100000D03*
X110431000Y-86900000D03*
X110431000Y-87700000D03*
X110431000Y-88500000D03*
X110431000Y-89300000D03*
X110431000Y-90100000D03*
X110431000Y-90900000D03*
X110431000Y-91700000D03*
D25*
X111881000Y-93150000D03*
X112681000Y-93150000D03*
X113481000Y-93150000D03*
X114281000Y-93150000D03*
X115081000Y-93150000D03*
X115881000Y-93150000D03*
X116681000Y-93150000D03*
X117481000Y-93150000D03*
D24*
X118931000Y-91700000D03*
X118931000Y-90900000D03*
X118931000Y-90100000D03*
X118931000Y-89300000D03*
X118931000Y-88500000D03*
X118931000Y-87700000D03*
X118931000Y-86900000D03*
X118931000Y-86100000D03*
D25*
X117481000Y-84650000D03*
X116681000Y-84650000D03*
X115881000Y-84650000D03*
X115081000Y-84650000D03*
X114281000Y-84650000D03*
X113481000Y-84650000D03*
X112681000Y-84650000D03*
X111881000Y-84650000D03*
D26*
X124587000Y-96710500D03*
D27*
X124587000Y-99250500D03*
D28*
X113327000Y-98640000D03*
X115527000Y-98640000D03*
X115527000Y-96940000D03*
X113327000Y-96940000D03*
M02*
