G04 #@! TF.FileFunction,Soldermask,Top*
%FSLAX46Y46*%
G04 Gerber Fmt 4.6, Leading zero omitted, Abs format (unit mm)*
G04 Created by KiCad (PCBNEW 4.0.0-rc2-stable) date 11/27/2015 10:33:43 PM*
%MOMM*%
G01*
G04 APERTURE LIST*
%ADD10C,0.100000*%
%ADD11R,1.600000X1.150000*%
%ADD12R,1.150000X1.600000*%
%ADD13R,2.000200X3.000960*%
%ADD14R,3.399740X2.000200*%
%ADD15R,1.950000X1.900000*%
%ADD16O,1.950000X1.300000*%
%ADD17O,1.350000X1.650000*%
%ADD18R,1.750000X0.800000*%
%ADD19R,2.400000X12.400000*%
%ADD20R,1.600000X1.300000*%
%ADD21R,1.300000X1.600000*%
%ADD22R,2.000000X0.950000*%
%ADD23R,0.950000X2.000000*%
%ADD24R,2.432000X2.432000*%
%ADD25O,2.432000X2.432000*%
%ADD26R,1.800000X1.600000*%
G04 APERTURE END LIST*
D10*
D11*
X113540500Y-100520500D03*
X115440500Y-100520500D03*
D12*
X117411500Y-97221000D03*
X117411500Y-99121000D03*
X113538000Y-82674500D03*
X113538000Y-80774500D03*
X115887500Y-82674500D03*
X115887500Y-80774500D03*
D11*
X105031500Y-89852500D03*
X106931500Y-89852500D03*
D13*
X106781600Y-83924140D03*
X106781600Y-87525860D03*
D11*
X123060500Y-82232500D03*
X121160500Y-82232500D03*
D12*
X119824500Y-97221000D03*
X119824500Y-99121000D03*
D14*
X110444280Y-98552000D03*
X106045000Y-98552000D03*
X110363000Y-79375000D03*
X105963720Y-79375000D03*
D11*
X110360500Y-94805500D03*
X108460500Y-94805500D03*
X118493500Y-78867000D03*
X120393500Y-78867000D03*
D15*
X125476000Y-87900000D03*
X125476000Y-89900000D03*
D16*
X125476000Y-85400000D03*
X125476000Y-92400000D03*
D17*
X122776000Y-91400000D03*
X122776000Y-86400000D03*
D18*
X122776000Y-90200000D03*
X122776000Y-89550000D03*
X122776000Y-88900000D03*
X122776000Y-88250000D03*
X122776000Y-87600000D03*
D19*
X103013000Y-95123000D03*
X103013000Y-82677000D03*
D20*
X115400000Y-94996000D03*
X113200000Y-94996000D03*
X121010500Y-84201000D03*
X123210500Y-84201000D03*
D21*
X120904000Y-90170000D03*
X120904000Y-92370000D03*
X120904000Y-88265000D03*
X120904000Y-86065000D03*
X108521500Y-93111500D03*
X108521500Y-90911500D03*
D20*
X119908500Y-77216000D03*
X117708500Y-77216000D03*
D21*
X106743500Y-94635500D03*
X106743500Y-92435500D03*
D20*
X113581000Y-78803500D03*
X115781000Y-78803500D03*
D21*
X105092500Y-94635500D03*
X105092500Y-92435500D03*
D20*
X113581000Y-77216000D03*
X115781000Y-77216000D03*
X117688000Y-95377000D03*
X119888000Y-95377000D03*
D22*
X110431000Y-86100000D03*
X110431000Y-86900000D03*
X110431000Y-87700000D03*
X110431000Y-88500000D03*
X110431000Y-89300000D03*
X110431000Y-90100000D03*
X110431000Y-90900000D03*
X110431000Y-91700000D03*
D23*
X111881000Y-93150000D03*
X112681000Y-93150000D03*
X113481000Y-93150000D03*
X114281000Y-93150000D03*
X115081000Y-93150000D03*
X115881000Y-93150000D03*
X116681000Y-93150000D03*
X117481000Y-93150000D03*
D22*
X118931000Y-91700000D03*
X118931000Y-90900000D03*
X118931000Y-90100000D03*
X118931000Y-89300000D03*
X118931000Y-88500000D03*
X118931000Y-87700000D03*
X118931000Y-86900000D03*
X118931000Y-86100000D03*
D23*
X117481000Y-84650000D03*
X116681000Y-84650000D03*
X115881000Y-84650000D03*
X115081000Y-84650000D03*
X114281000Y-84650000D03*
X113481000Y-84650000D03*
X112681000Y-84650000D03*
X111881000Y-84650000D03*
D24*
X124587000Y-96710500D03*
D25*
X124587000Y-99250500D03*
D26*
X113327000Y-98640000D03*
X115527000Y-98640000D03*
X115527000Y-96940000D03*
X113327000Y-96940000D03*
M02*
