M48
;DRILL file {KiCad 4.0.0-rc2-stable} date 11/27/2015 10:20:45 PM
;FORMAT={-:-/ absolute / metric / decimal}
FMAT,2
METRIC,TZ
T1C0.330
T2C0.500
T3C0.550
T4C1.016
%
G90
G05
M71
T1
X105.105Y-91.034
X106.756Y-90.932
X108.636Y-87.528
X110.312Y-92.735
X111.836Y-87.706
X112.166Y-81.102
X114.275Y-86.055
X116.307Y-87.02
X117.069Y-78.791
X117.246Y-81.051
X117.399Y-100.533
X117.526Y-89.281
X119.63Y-84.884
X119.812Y-100.508
X124.638Y-82.22
T4
X124.587Y-96.71
X124.587Y-99.251
T2
X125.151Y-85.4G85X125.801Y-85.4
G05
X125.151Y-92.4G85X125.801Y-92.4
G05
T3
X122.776Y-86.55G85X122.776Y-86.25
G05
X122.776Y-91.55G85X122.776Y-91.25
G05
T0
M30
